<svg width="127" height="32" viewBox="0 0 127 32" fill="none" xmlns="http://www.w3.org/2000/svg">
<path d="M0.646573 31V0.454545H12.3398C14.5471 0.454545 16.3817 0.802556 17.8433 1.49858C19.3149 2.18466 20.4136 3.12429 21.1395 4.31747C21.8753 5.51065 22.2432 6.86293 22.2432 8.37429C22.2432 9.61719 22.0045 10.6811 21.5273 11.5661C21.05 12.4411 20.4086 13.152 19.6032 13.6989C18.7979 14.2457 17.898 14.6385 16.9037 14.8771V15.1754C17.9875 15.2351 19.0265 15.5682 20.0209 16.1747C21.0251 16.7713 21.8454 17.6165 22.4818 18.7102C23.1182 19.804 23.4363 21.1264 23.4363 22.6776C23.4363 24.2585 23.0535 25.6804 22.2879 26.9432C21.5223 28.196 20.3689 29.1854 18.8277 29.9112C17.2865 30.6371 15.3476 31 13.0109 31H0.646573ZM6.17995 26.3764H12.1309C14.1395 26.3764 15.5862 25.9936 16.4711 25.228C17.366 24.4524 17.8135 23.4581 17.8135 22.245C17.8135 21.3402 17.5898 20.5249 17.1423 19.799C16.6949 19.0632 16.0585 18.4865 15.2332 18.0689C14.4079 17.6413 13.4236 17.4276 12.2801 17.4276H6.17995V26.3764ZM6.17995 13.4453H11.6537C12.6082 13.4453 13.4683 13.2713 14.2339 12.9233C14.9996 12.5653 15.6011 12.0632 16.0386 11.4169C16.4861 10.7607 16.7098 9.98508 16.7098 9.0902C16.7098 7.90696 16.2922 6.93253 15.4569 6.1669C14.6317 5.40128 13.4037 5.01846 11.773 5.01846H6.17995V13.4453ZM34.6038 31.4624C33.1521 31.4624 31.8445 31.2038 30.6812 30.6868C29.5278 30.1598 28.613 29.3842 27.9369 28.3601C27.2707 27.3359 26.9376 26.0732 26.9376 24.5717C26.9376 23.2791 27.1762 22.2102 27.6535 21.3651C28.1308 20.5199 28.782 19.8438 29.6073 19.3366C30.4326 18.8295 31.3623 18.4467 32.3964 18.1882C33.4404 17.9197 34.5193 17.7259 35.6329 17.6065C36.9752 17.4673 38.064 17.343 38.8992 17.2337C39.7345 17.1143 40.341 16.9354 40.7188 16.6967C41.1066 16.4482 41.3005 16.0653 41.3005 15.5483V15.4588C41.3005 14.3352 40.9674 13.4652 40.3012 12.8487C39.635 12.2322 38.6755 11.924 37.4227 11.924C36.1002 11.924 35.0512 12.2124 34.2757 12.7891C33.51 13.3658 32.993 14.0469 32.7245 14.8324L27.6833 14.1165C28.0811 12.7244 28.7373 11.5611 29.6521 10.6264C30.5669 9.68182 31.6855 8.97585 33.0079 8.50852C34.3303 8.03125 35.792 7.79261 37.3928 7.79261C38.4965 7.79261 39.5953 7.92188 40.689 8.1804C41.7828 8.43892 42.782 8.86648 43.6869 9.46307C44.5917 10.0497 45.3176 10.8501 45.8644 11.8643C46.4213 12.8786 46.6997 14.1463 46.6997 15.6676V31H41.5093V27.853H41.3303C41.0022 28.4893 40.5399 29.0859 39.9433 29.6428C39.3566 30.1896 38.6159 30.6321 37.721 30.9702C36.836 31.2983 35.797 31.4624 34.6038 31.4624ZM36.0058 27.495C37.0896 27.495 38.0292 27.2812 38.8247 26.8537C39.6201 26.4162 40.2316 25.8395 40.6592 25.1236C41.0967 24.4077 41.3154 23.6271 41.3154 22.782V20.0824C41.1464 20.2216 40.858 20.3509 40.4504 20.4702C40.0526 20.5895 39.6052 20.6939 39.108 20.7834C38.6109 20.8729 38.1187 20.9524 37.6315 21.022C37.1443 21.0916 36.7217 21.1513 36.3637 21.201C35.5583 21.3104 34.8374 21.4893 34.2011 21.7379C33.5647 21.9865 33.0626 22.3345 32.6947 22.782C32.3268 23.2195 32.1428 23.7862 32.1428 24.4822C32.1428 25.4766 32.5058 26.2273 33.2316 26.7344C33.9575 27.2415 34.8822 27.495 36.0058 27.495ZM57.5278 0.454545V31H52.1286V0.454545H57.5278ZM73.0727 31.4474C70.8355 31.4474 68.8966 30.9553 67.2559 29.9709C65.6153 28.9865 64.3426 27.6094 63.4378 25.8395C62.5429 24.0696 62.0954 22.0014 62.0954 19.6349C62.0954 17.2685 62.5429 15.1953 63.4378 13.4155C64.3426 11.6357 65.6153 10.2536 67.2559 9.26918C68.8966 8.2848 70.8355 7.79261 73.0727 7.79261C75.3099 7.79261 77.2488 8.2848 78.8895 9.26918C80.5301 10.2536 81.7979 11.6357 82.6927 13.4155C83.5976 15.1953 84.05 17.2685 84.05 19.6349C84.05 22.0014 83.5976 24.0696 82.6927 25.8395C81.7979 27.6094 80.5301 28.9865 78.8895 29.9709C77.2488 30.9553 75.3099 31.4474 73.0727 31.4474ZM73.1025 27.1222C74.3156 27.1222 75.3298 26.7891 76.1452 26.1229C76.9605 25.4467 77.567 24.5419 77.9648 23.4084C78.3724 22.2749 78.5763 21.0121 78.5763 19.62C78.5763 18.218 78.3724 16.9503 77.9648 15.8168C77.567 14.6733 76.9605 13.7635 76.1452 13.0874C75.3298 12.4112 74.3156 12.0732 73.1025 12.0732C71.8596 12.0732 70.8256 12.4112 70.0003 13.0874C69.1849 13.7635 68.5734 14.6733 68.1657 15.8168C67.768 16.9503 67.5692 18.218 67.5692 19.62C67.5692 21.0121 67.768 22.2749 68.1657 23.4084C68.5734 24.5419 69.1849 25.4467 70.0003 26.1229C70.8256 26.7891 71.8596 27.1222 73.1025 27.1222ZM98.6254 31.4474C96.3882 31.4474 94.4493 30.9553 92.8087 29.9709C91.1681 28.9865 89.8953 27.6094 88.9905 25.8395C88.0956 24.0696 87.6482 22.0014 87.6482 19.6349C87.6482 17.2685 88.0956 15.1953 88.9905 13.4155C89.8953 11.6357 91.1681 10.2536 92.8087 9.26918C94.4493 8.2848 96.3882 7.79261 98.6254 7.79261C100.863 7.79261 102.802 8.2848 104.442 9.26918C106.083 10.2536 107.351 11.6357 108.245 13.4155C109.15 15.1953 109.603 17.2685 109.603 19.6349C109.603 22.0014 109.15 24.0696 108.245 25.8395C107.351 27.6094 106.083 28.9865 104.442 29.9709C102.802 30.9553 100.863 31.4474 98.6254 31.4474ZM98.6553 27.1222C99.8683 27.1222 100.883 26.7891 101.698 26.1229C102.513 25.4467 103.12 24.5419 103.517 23.4084C103.925 22.2749 104.129 21.0121 104.129 19.62C104.129 18.218 103.925 16.9503 103.517 15.8168C103.12 14.6733 102.513 13.7635 101.698 13.0874C100.883 12.4112 99.8683 12.0732 98.6553 12.0732C97.4124 12.0732 96.3783 12.4112 95.553 13.0874C94.7377 13.7635 94.1262 14.6733 93.7185 15.8168C93.3208 16.9503 93.1219 18.218 93.1219 19.62C93.1219 21.0121 93.3208 22.2749 93.7185 23.4084C94.1262 24.5419 94.7377 25.4467 95.553 26.1229C96.3783 26.7891 97.4124 27.1222 98.6553 27.1222ZM125.625 8.09091V12.267H112.455V8.09091H125.625ZM115.707 2.60227H121.106V24.1094C121.106 24.8352 121.215 25.392 121.434 25.7798C121.663 26.1577 121.961 26.4162 122.329 26.5554C122.697 26.6946 123.104 26.7642 123.552 26.7642C123.89 26.7642 124.198 26.7393 124.476 26.6896C124.765 26.6399 124.984 26.5952 125.133 26.5554L126.043 30.7763C125.754 30.8757 125.342 30.9851 124.805 31.1044C124.278 31.2237 123.631 31.2933 122.866 31.3132C121.513 31.353 120.295 31.1491 119.212 30.7017C118.128 30.2443 117.268 29.5384 116.631 28.5838C116.005 27.6293 115.697 26.4361 115.707 25.0043V2.60227Z" fill="#A97B47"/>
</svg>
