<?xml version="1.0" encoding="UTF-8"?>
<!DOCTYPE svg PUBLIC "-//W3C//DTD SVG 1.1//EN" "http://www.w3.org/Graphics/SVG/1.1/DTD/svg11.dtd">
<svg xmlns="http://www.w3.org/2000/svg" version="1.1" width="512px" height="512px"
     style="shape-rendering:geometricPrecision; text-rendering:geometricPrecision; image-rendering:optimizeQuality; fill-rule:evenodd; clip-rule:evenodd"
     xmlns:xlink="http://www.w3.org/1999/xlink">
    <g>
        <path style="opacity:0.966" fill="#060404"
              d="M 174.5,32.5 C 176.167,33.1667 177.833,33.8333 179.5,34.5C 180.391,35.1098 181.391,35.4431 182.5,35.5C 182.842,36.3382 183.508,36.6716 184.5,36.5C 185.467,37.8062 186.801,38.4729 188.5,38.5C 188.5,38.8333 188.5,39.1667 188.5,39.5C 188.427,41.0269 189.094,42.0269 190.5,42.5C 190.833,43.5 191.5,44.1667 192.5,44.5C 192.402,46.5529 193.069,48.2196 194.5,49.5C 194.5,50.5 194.5,51.5 194.5,52.5C 194.5,53.1667 194.833,53.5 195.5,53.5C 195.5,53.8333 195.5,54.1667 195.5,54.5C 195.5,54.8333 195.5,55.1667 195.5,55.5C 196.62,60.1824 196.62,64.5158 195.5,68.5C 195.5,68.8333 195.5,69.1667 195.5,69.5C 194.508,69.3284 193.842,69.6618 193.5,70.5C 192.89,71.391 192.557,72.391 192.5,73.5C 192.5,74.1667 192.167,74.5 191.5,74.5C 190.599,75.2905 189.932,76.2905 189.5,77.5C 187.771,78.2362 186.771,79.5695 186.5,81.5C 185.609,82.1098 184.609,82.4431 183.5,82.5C 182.833,82.5 182.5,82.8333 182.5,83.5C 181.833,83.5 181.5,83.8333 181.5,84.5C 181.167,84.5 180.833,84.5 180.5,84.5C 179.5,84.8333 178.833,85.5 178.5,86.5C 177.508,86.3284 176.842,86.6618 176.5,87.5C 175.508,87.3284 174.842,87.6618 174.5,88.5C 174.5,88.8333 174.5,89.1667 174.5,89.5C 172.596,89.7376 171.262,90.7376 170.5,92.5C 169.36,93.8014 168.027,94.9681 166.5,96C 166.833,96.3333 167.167,96.6667 167.5,97C 164.991,98.5182 163.324,100.685 162.5,103.5C 161.662,103.842 161.328,104.508 161.5,105.5C 160.833,105.5 160.5,105.833 160.5,106.5C 159.89,107.391 159.557,108.391 159.5,109.5C 158.463,110.93 157.796,112.597 157.5,114.5C 156.662,114.842 156.328,115.508 156.5,116.5C 156.5,116.833 156.5,117.167 156.5,117.5C 155.596,118.209 155.263,119.209 155.5,120.5C 154.833,120.5 154.5,120.833 154.5,121.5C 154.5,122.5 154.5,123.5 154.5,124.5C 153.662,124.842 153.328,125.508 153.5,126.5C 153.167,128.5 152.833,130.5 152.5,132.5C 152.5,133.167 152.833,133.5 153.5,133.5C 153.842,134.338 154.508,134.672 155.5,134.5C 162.167,134.5 168.833,134.5 175.5,134.5C 182.746,135.464 190.08,135.797 197.5,135.5C 212.75,136.664 228.083,137.997 243.5,139.5C 244.5,139.5 245.5,139.5 246.5,139.5C 247.209,140.404 248.209,140.737 249.5,140.5C 250.848,141.601 252.348,142.601 254,143.5C 254.333,143.167 254.667,142.833 255,142.5C 256.107,145.113 257.94,146.78 260.5,147.5C 260.5,148.167 260.833,148.5 261.5,148.5C 261.5,149.167 261.833,149.5 262.5,149.5C 263.833,151.5 265.167,153.5 266.5,155.5C 265.167,155.833 265.167,156.167 266.5,156.5C 266.393,158.379 266.893,158.712 268,157.5C 269.53,175.138 269.863,192.804 269,210.5C 268.918,213.285 268.085,215.952 266.5,218.5C 266.5,218.833 266.5,219.167 266.5,219.5C 265.833,219.5 265.5,219.833 265.5,220.5C 265.5,220.833 265.5,221.167 265.5,221.5C 264.833,221.5 264.5,221.833 264.5,222.5C 264.5,222.833 264.5,223.167 264.5,223.5C 263.5,224.5 262.5,225.5 261.5,226.5C 260.167,227.167 259.167,228.167 258.5,229.5C 257.833,229.5 257.5,229.833 257.5,230.5C 254.979,232.03 253.979,234.364 254.5,237.5C 254.5,237.833 254.5,238.167 254.5,238.5C 253.629,241.003 252.963,243.67 252.5,246.5C 252.443,247.609 252.11,248.609 251.5,249.5C 251.167,252.167 250.833,254.833 250.5,257.5C 249.566,258.568 249.232,259.901 249.5,261.5C 248.596,262.209 248.263,263.209 248.5,264.5C 248.5,264.833 248.5,265.167 248.5,265.5C 247.833,265.5 247.5,265.833 247.5,266.5C 247.5,267.167 247.5,267.833 247.5,268.5C 246.542,270.302 245.875,272.302 245.5,274.5C 244.766,275.708 244.433,277.041 244.5,278.5C 243.662,278.842 243.328,279.508 243.5,280.5C 243.5,280.833 243.5,281.167 243.5,281.5C 242.463,282.93 241.796,284.597 241.5,286.5C 240.27,288.297 239.604,290.297 239.5,292.5C 238.833,292.5 238.5,292.833 238.5,293.5C 237.833,295.167 237.167,296.833 236.5,298.5C 236.5,298.833 236.5,299.167 236.5,299.5C 235.662,299.842 235.328,300.508 235.5,301.5C 235.5,301.833 235.5,302.167 235.5,302.5C 234.662,302.842 234.328,303.508 234.5,304.5C 233.069,305.78 232.402,307.447 232.5,309.5C 230.896,310.287 230.229,311.62 230.5,313.5C 229.662,313.842 229.328,314.508 229.5,315.5C 228.662,315.842 228.328,316.508 228.5,317.5C 227.167,317.5 226.5,318.167 226.5,319.5C 225.662,319.842 225.328,320.508 225.5,321.5C 225.5,322.167 225.5,322.833 225.5,323.5C 223.302,323.409 222.969,324.075 224.5,325.5C 223.508,325.328 222.842,325.662 222.5,326.5C 221.677,328.805 220.344,330.805 218.5,332.5C 217.662,332.842 217.328,333.508 217.5,334.5C 215.591,336.649 213.924,338.982 212.5,341.5C 211.833,341.5 211.5,341.833 211.5,342.5C 210.833,342.5 210.5,342.833 210.5,343.5C 209.662,343.842 209.328,344.508 209.5,345.5C 208.5,345.833 207.833,346.5 207.5,347.5C 207.5,347.833 207.5,348.167 207.5,348.5C 206,350.27 204.333,351.937 202.5,353.5C 201.833,353.5 201.5,353.833 201.5,354.5C 200.167,355.167 199.167,356.167 198.5,357.5C 197.833,357.5 197.5,357.833 197.5,358.5C 196.167,359.167 195.167,360.167 194.5,361.5C 193.833,361.5 193.5,361.833 193.5,362.5C 192.833,362.5 192.5,362.833 192.5,363.5C 191.5,363.833 190.833,364.5 190.5,365.5C 190.167,365.5 189.833,365.5 189.5,365.5C 188.5,365.833 187.833,366.5 187.5,367.5C 186.5,367.833 185.833,368.5 185.5,369.5C 184.29,369.932 183.29,370.599 182.5,371.5C 182.5,371.833 182.5,372.167 182.5,372.5C 181.508,372.328 180.842,372.662 180.5,373.5C 180.167,373.5 179.833,373.5 179.5,373.5C 178.833,373.5 178.5,373.833 178.5,374.5C 177.833,374.5 177.5,374.833 177.5,375.5C 174.296,376.383 171.629,378.05 169.5,380.5C 167.973,380.427 166.973,381.094 166.5,382.5C 165.118,382.598 163.618,382.598 162,382.5C 159.661,383.557 157.495,384.89 155.5,386.5C 154.158,385.098 153.324,385.431 153,387.5C 151.602,386.949 150.268,386.616 149,386.5C 142.595,387.825 136.095,388.825 129.5,389.5C 127.696,389.014 126.029,388.347 124.5,387.5C 123.833,387.5 123.167,387.5 122.5,387.5C 120.347,388.573 118.347,388.573 116.5,387.5C 117.833,387.167 117.833,386.833 116.5,386.5C 115.391,386.443 114.391,386.11 113.5,385.5C 112.833,385.5 112.167,385.5 111.5,385.5C 110.292,384.766 108.959,384.433 107.5,384.5C 106.249,382.78 104.749,382.447 103,383.5C 100.019,381.203 96.8524,379.203 93.5,377.5C 92.7095,376.599 91.7095,375.932 90.5,375.5C 90.5,374.833 90.1667,374.5 89.5,374.5C 88.5,373.833 87.5,373.167 86.5,372.5C 85.8333,372.167 85.1667,371.833 84.5,371.5C 84.5,370.833 84.1667,370.5 83.5,370.5C 81.9142,369.852 80.2475,369.352 78.5,369C 79.1667,368.667 79.8333,368.333 80.5,368C 79.2949,366.624 77.9616,365.458 76.5,364.5C 76.1667,364.5 75.8333,364.5 75.5,364.5C 75.573,362.973 74.9063,361.973 73.5,361.5C 73.1667,360.5 72.5,359.833 71.5,359.5C 70.0892,357.086 68.0892,355.419 65.5,354.5C 65.0679,353.29 64.4013,352.29 63.5,351.5C 63.5,350.833 63.1667,350.5 62.5,350.5C 62.5,349.833 62.1667,349.5 61.5,349.5C 61.5,348.833 61.1667,348.5 60.5,348.5C 60.6716,347.508 60.3382,346.842 59.5,346.5C 59.1667,346.5 58.8333,346.5 58.5,346.5C 58.6716,345.508 58.3382,344.842 57.5,344.5C 57.5,343.833 57.1667,343.5 56.5,343.5C 56.5,342.833 56.1667,342.5 55.5,342.5C 55.0679,341.29 54.4013,340.29 53.5,339.5C 52.7515,337.668 51.7515,336.001 50.5,334.5C 50.5,333.833 50.1667,333.5 49.5,333.5C 49.0679,332.29 48.4013,331.29 47.5,330.5C 47.1667,330.5 46.8333,330.5 46.5,330.5C 46.5,330.167 46.5,329.833 46.5,329.5C 46.4431,328.391 46.1098,327.391 45.5,326.5C 45.5,325.833 45.1667,325.5 44.5,325.5C 44.5,324.833 44.1667,324.5 43.5,324.5C 43.5,324.167 43.5,323.833 43.5,323.5C 43.5,322.833 43.1667,322.5 42.5,322.5C 42.5,321.167 42.5,319.833 42.5,318.5C 42.5,318.167 42.5,317.833 42.5,317.5C 42.5,316.833 42.5,316.167 42.5,315.5C 43.5,313.833 44.8333,312.5 46.5,311.5C 49.8934,311.062 52.8934,311.895 55.5,314C 65.0431,329.742 76.7098,343.742 90.5,356C 111.735,374.374 135.068,377.874 160.5,366.5C 179.029,355.806 194.196,341.473 206,323.5C 219.71,301.541 229.21,277.874 234.5,252.5C 236.706,247.497 238.039,242.164 238.5,236.5C 190.876,240.027 143.209,241.361 95.5,240.5C 94.8333,240.5 94.1667,240.5 93.5,240.5C 72.3465,238.986 51.0131,237.986 29.5,237.5C 31.8227,248.811 34.1561,260.144 36.5,271.5C 36.3333,272.833 36.1667,274.167 36,275.5C 34.6244,276.705 33.4577,278.038 32.5,279.5C 28.8084,280.029 25.6417,279.029 23,276.5C 22.6667,276.833 22.3333,277.167 22,277.5C 20.9622,271.76 19.6289,266.093 18,260.5C 17.6667,261.167 17.3333,261.833 17,262.5C 16.2571,260.559 16.4238,258.726 17.5,257C 15.1925,256.646 14.8592,255.646 16.5,254C 15.3809,250.239 14.7143,246.406 14.5,242.5C 13.962,240.883 13.6287,239.216 13.5,237.5C 13.6716,236.508 13.3382,235.842 12.5,235.5C 12.6567,234.127 12.49,232.793 12,231.5C 10.8552,231.381 9.68849,231.048 8.5,230.5C 5.97492,226.104 2.97492,222.104 -0.5,218.5C -0.5,217.833 -0.5,217.167 -0.5,216.5C 0.833333,216.167 0.833333,215.833 -0.5,215.5C -0.5,197.167 -0.5,178.833 -0.5,160.5C 0.833333,160.167 0.833333,159.833 -0.5,159.5C -0.5,159.167 -0.5,158.833 -0.5,158.5C 0.166667,158.5 0.5,158.167 0.5,157.5C 1.16667,157.5 1.5,157.167 1.5,156.5C 1.5,155.833 1.5,155.167 1.5,154.5C 2.16667,154.5 2.5,154.167 2.5,153.5C 3.40128,152.71 4.06795,151.71 4.5,150.5C 5.16667,149.833 5.83333,149.167 6.5,148.5C 8.29585,147.207 9.96252,145.707 11.5,144C 10.6598,142.334 11.1598,142.167 13,143.5C 13.9947,142.934 14.828,142.267 15.5,141.5C 15.8333,141.5 16.1667,141.5 16.5,141.5C 17.1667,141.5 17.5,141.167 17.5,140.5C 18.1667,140.5 18.8333,140.5 19.5,140.5C 24.6356,138.617 29.8023,137.95 35,138.5C 43.9754,137.381 52.9754,136.381 62,135.5C 64.5158,136.213 66.8491,136.547 69,136.5C 78.0915,136.031 87.0915,135.031 96,133.5C 98.187,133.788 100.354,134.122 102.5,134.5C 103.404,133.791 103.737,132.791 103.5,131.5C 103.682,122.594 103.682,113.761 103.5,105C 104.986,102.411 105.653,99.5772 105.5,96.5C 105.557,95.391 105.89,94.391 106.5,93.5C 106.5,91.8333 106.5,90.1667 106.5,88.5C 107.167,88.5 107.5,88.1667 107.5,87.5C 107.5,87.1667 107.5,86.8333 107.5,86.5C 107.5,86.1667 107.5,85.8333 107.5,85.5C 108.612,83.4006 109.279,81.0673 109.5,78.5C 110.167,78.5 110.5,78.1667 110.5,77.5C 110.5,76.8333 110.5,76.1667 110.5,75.5C 111.648,73.6746 112.314,72.0079 112.5,70.5C 113.674,69.4863 114.34,68.153 114.5,66.5C 115.361,64.6137 116.361,62.7804 117.5,61C 117.167,60.6667 116.833,60.3333 116.5,60C 122.05,54.9851 126.717,49.8185 130.5,44.5C 131.338,44.1583 131.672,43.4916 131.5,42.5C 132.167,42.8333 132.833,43.1667 133.5,43.5C 134.167,43.5 134.5,43.1667 134.5,42.5C 145.805,34.0037 159.139,30.6704 174.5,32.5 Z"/>
    </g>
    <g>
        <path style="opacity:0.01" fill="#fefffe"
              d="M 174.5,32.5 C 175.46,31.4848 176.627,31.4848 178,32.5C 179.03,32.8361 179.53,33.5028 179.5,34.5C 177.833,33.8333 176.167,33.1667 174.5,32.5 Z"/>
    </g>
    <g>
        <path style="opacity:0.005" fill="#fefffe"
              d="M 184.5,36.5 C 183.508,36.6716 182.842,36.3382 182.5,35.5C 183.281,33.3719 184.281,33.2053 185.5,35C 184.944,35.3826 184.611,35.8826 184.5,36.5 Z"/>
    </g>
    <g>
        <path style="opacity:0.007" fill="#fefffe"
              d="M 192.5,41.5 C 191.833,41.8333 191.167,42.1667 190.5,42.5C 189.094,42.0269 188.427,41.0269 188.5,39.5C 189.833,39.1667 189.833,38.8333 188.5,38.5C 187.2,37.399 186.7,36.0657 187,34.5C 189.43,36.4221 191.263,38.7554 192.5,41.5 Z"/>
    </g>
    <g>
        <path style="opacity:0.006" fill="#fefffe"
              d="M 134.5,42.5 C 134.5,43.1667 134.167,43.5 133.5,43.5C 133.338,41.4727 133.505,39.4727 134,37.5C 134.374,38.4162 134.874,39.2496 135.5,40C 134.748,40.6708 134.414,41.5041 134.5,42.5 Z"/>
    </g>
    <g>
        <path style="opacity:0.009" fill="#fefffe"
              d="M 131.5,42.5 C 129.302,42.4088 128.969,43.0755 130.5,44.5C 128.821,44.1077 127.154,43.6077 125.5,43C 127.481,42.3946 127.815,41.3946 126.5,40C 128.981,39.2404 130.647,40.0737 131.5,42.5 Z"/>
    </g>
    <g>
        <path style="opacity:0.005" fill="#fefffe"
              d="M 192.5,41.5 C 195.641,44.7671 197.307,48.7671 197.5,53.5C 197.253,54.7133 196.586,55.38 195.5,55.5C 195.5,55.1667 195.5,54.8333 195.5,54.5C 196.833,54.1667 196.833,53.8333 195.5,53.5C 194.833,53.5 194.5,53.1667 194.5,52.5C 195.833,51.5 195.833,50.5 194.5,49.5C 194.598,47.4471 193.931,45.7804 192.5,44.5C 192.5,43.5 192.5,42.5 192.5,41.5 Z"/>
    </g>
    <g>
        <path style="opacity:0.024" fill="#fefffe" d="M 123.5,49.5 C 124.833,50.1667 124.833,50.1667 123.5,49.5 Z"/>
    </g>
    <g>
        <path style="opacity:1" fill="#c7905a"
              d="M 175.5,50.5 C 176.794,51.2899 177.961,52.2899 179,53.5C 180.759,60.0092 179.259,65.5092 174.5,70C 163.717,75.7828 155.217,83.9495 149,94.5C 146.111,100.934 143.278,107.267 140.5,113.5C 139.065,114.79 138.065,116.456 137.5,118.5C 136.778,122.847 136.112,127.18 135.5,131.5C 133.955,132.452 132.288,132.785 130.5,132.5C 130.679,120.401 131.846,108.401 134,96.5C 137.535,83.9074 143.702,72.7408 152.5,63C 153.833,62.6667 155.167,62.3333 156.5,62C 161.205,55.4582 167.539,51.6249 175.5,50.5 Z"/>
    </g>
    <g>
        <path style="opacity:0.006" fill="#fefffe"
              d="M 118.5,54.5 C 118.897,53.475 119.563,53.3083 120.5,54C 119.906,54.4643 119.239,54.631 118.5,54.5 Z"/>
    </g>
    <g>
        <path style="opacity:1" fill="#ba814f"
              d="M 175.5,50.5 C 167.539,51.6249 161.205,55.4582 156.5,62C 155.167,62.3333 153.833,62.6667 152.5,63C 143.702,72.7408 137.535,83.9074 134,96.5C 131.846,108.401 130.679,120.401 130.5,132.5C 132.288,132.785 133.955,132.452 135.5,131.5C 136.112,127.18 136.778,122.847 137.5,118.5C 138.065,116.456 139.065,114.79 140.5,113.5C 138.845,120.429 137.512,127.429 136.5,134.5C 130.5,134.5 124.5,134.5 118.5,134.5C 117.896,116.467 120.063,98.8005 125,81.5C 130.743,65.4233 141.576,54.2567 157.5,48C 162.167,47.3333 166.833,47.3333 171.5,48C 173.066,48.6082 174.4,49.4415 175.5,50.5 Z"/>
    </g>
    <g>
        <path style="opacity:0.004" fill="#fefffe"
              d="M 197.5,65.5 C 197.343,64.1266 197.51,62.7932 198,61.5C 198.765,63.0657 198.598,64.3991 197.5,65.5 Z"/>
    </g>
    <g>
        <path style="opacity:0.004" fill="#fefffe"
              d="M 197.5,65.5 C 197.768,67.099 197.434,68.4324 196.5,69.5C 196.5,68.8333 196.167,68.5 195.5,68.5C 195.932,67.2905 196.599,66.2905 197.5,65.5 Z"/>
    </g>
    <g>
        <path style="opacity:0.006" fill="#fefffe"
              d="M 114.5,66.5 C 114.34,68.153 113.674,69.4863 112.5,70.5C 111.209,68.4098 111.876,67.0764 114.5,66.5 Z"/>
    </g>
    <g>
        <path style="opacity:0.004" fill="#fefffe"
              d="M 195.5,69.5 C 195.833,69.5 196.167,69.5 196.5,69.5C 196.167,72.1667 195.833,72.1667 195.5,69.5 Z"/>
    </g>
    <g>
        <path style="opacity:0.018" fill="#fefffe"
              d="M 193.5,70.5 C 194.715,71.779 194.382,72.779 192.5,73.5C 192.557,72.391 192.89,71.391 193.5,70.5 Z"/>
    </g>
    <g>
        <path style="opacity:0.004" fill="#fefffe"
              d="M 110.5,75.5 C 110.5,76.1667 110.5,76.8333 110.5,77.5C 108.801,77.6602 107.134,77.4935 105.5,77C 106.701,76.0975 107.535,74.9308 108,73.5C 108.359,76.5443 109.026,76.8776 110,74.5C 110.399,74.7284 110.565,75.0618 110.5,75.5 Z"/>
    </g>
    <g>
        <path style="opacity:0.012" fill="#fefffe"
              d="M 191.5,74.5 C 191.414,75.4959 191.748,76.3292 192.5,77C 191.552,77.4828 190.552,77.6495 189.5,77.5C 189.932,76.2905 190.599,75.2905 191.5,74.5 Z"/>
    </g>
    <g>
        <path style="opacity:0.009" fill="#fefffe"
              d="M 109.5,78.5 C 109.279,81.0673 108.612,83.4006 107.5,85.5C 107.171,82.7718 107.837,80.4385 109.5,78.5 Z"/>
    </g>
    <g>
        <path style="opacity:0.004" fill="#fefffe"
              d="M 174.5,89.5 C 177.167,89.1667 177.167,88.8333 174.5,88.5C 174.842,87.6618 175.508,87.3284 176.5,87.5C 177.492,87.6716 178.158,87.3382 178.5,86.5C 181.167,87.8333 181.833,87.1667 180.5,84.5C 180.833,84.5 181.167,84.5 181.5,84.5C 181.833,84.5 182.167,84.5 182.5,84.5C 183.672,85.7053 185.005,85.7053 186.5,84.5C 187.562,83.5754 187.562,82.5754 186.5,81.5C 188.371,81.1412 189.871,80.1412 191,78.5C 191.499,84.1569 191.666,89.8236 191.5,95.5C 186.167,95.5 180.833,95.5 175.5,95.5C 175.675,93.3792 175.341,91.3792 174.5,89.5 Z"/>
    </g>
    <g>
        <path style="opacity:0.01" fill="#fefffe"
              d="M 183.5,82.5 C 185.031,83.9245 184.698,84.5912 182.5,84.5C 182.5,84.1667 182.5,83.8333 182.5,83.5C 182.5,82.8333 182.833,82.5 183.5,82.5 Z"/>
    </g>
    <g>
        <path style="opacity:0.016" fill="#fefffe"
              d="M 107.5,86.5 C 107.5,86.8333 107.5,87.1667 107.5,87.5C 106.833,87.5 106.5,87.8333 106.5,88.5C 105.243,87.3774 105.576,86.7107 107.5,86.5 Z"/>
    </g>
    <g>
        <path style="opacity:0.008" fill="#fefffe"
              d="M 106.5,93.5 C 105.89,94.391 105.557,95.391 105.5,96.5C 104.778,96.9175 104.278,97.5842 104,98.5C 103.333,96.5 103.333,94.5 104,92.5C 104.671,93.2524 105.504,93.5858 106.5,93.5 Z"/>
    </g>
    <g>
        <path style="opacity:0.006" fill="#fefffe"
              d="M 170.5,92.5 C 171.239,92.369 171.906,92.5357 172.5,93C 171.563,93.6917 170.897,93.525 170.5,92.5 Z"/>
    </g>
    <g>
        <path style="opacity:0.004" fill="#fefffe"
              d="M 162.5,103.5 C 163.833,104.167 163.833,104.833 162.5,105.5C 162.5,104.833 162.5,104.167 162.5,103.5 Z"/>
    </g>
    <g>
        <path style="opacity:0.008" fill="#fefffe"
              d="M 161.5,105.5 C 161.833,105.5 162.167,105.5 162.5,105.5C 162.392,107.783 161.559,109.783 160,111.5C 159.536,110.906 159.369,110.239 159.5,109.5C 159.557,108.391 159.89,107.391 160.5,106.5C 161.167,106.5 161.5,106.167 161.5,105.5 Z"/>
    </g>
    <g>
        <path style="opacity:0.007" fill="#fefffe"
              d="M 157.5,114.5 C 158.097,114.735 158.43,115.235 158.5,116C 157.044,121.058 156.21,126.224 156,131.5C 154.272,132.352 154.105,133.352 155.5,134.5C 154.508,134.672 153.842,134.338 153.5,133.5C 152.833,133.5 152.5,133.167 152.5,132.5C 152.833,130.5 153.167,128.5 153.5,126.5C 154.338,126.158 154.672,125.492 154.5,124.5C 155.833,123.5 155.833,122.5 154.5,121.5C 154.5,120.833 154.833,120.5 155.5,120.5C 156.404,119.791 156.737,118.791 156.5,117.5C 156.5,117.167 156.5,116.833 156.5,116.5C 157.338,116.158 157.672,115.492 157.5,114.5 Z"/>
    </g>
    <g>
        <path style="opacity:0.004" fill="#fefffe"
              d="M 249.5,140.5 C 248.895,138.519 247.895,138.185 246.5,139.5C 245.5,139.5 244.5,139.5 243.5,139.5C 241.695,137.803 239.361,136.97 236.5,137C 223.519,135.965 210.519,135.465 197.5,135.5C 190.08,135.797 182.746,135.464 175.5,134.5C 175.5,132.167 175.5,129.833 175.5,127.5C 202.167,127.5 228.833,127.5 255.5,127.5C 255.5,132.167 255.5,136.833 255.5,141.5C 253.5,141.167 251.5,140.833 249.5,140.5 Z"/>
    </g>
    <g>
        <path style="opacity:0.008" fill="#fefffe"
              d="M 89.5,130.5 C 90.2506,129.427 91.2506,129.26 92.5,130C 91.552,130.483 90.552,130.649 89.5,130.5 Z"/>
    </g>
    <g>
        <path style="opacity:0.004" fill="#fefffe"
              d="M 103.5,131.5 C 103.737,132.791 103.404,133.791 102.5,134.5C 99.8511,132.891 96.8511,132.057 93.5,132C 96.8168,131.502 100.15,131.335 103.5,131.5 Z"/>
    </g>
    <g>
        <path style="opacity:0.007" fill="#fefffe"
              d="M 19.5,140.5 C 18.8333,140.5 18.1667,140.5 17.5,140.5C 16.8333,140.5 16.5,140.833 16.5,141.5C 16.1667,141.5 15.8333,141.5 15.5,141.5C 16.1031,137.88 17.4365,137.547 19.5,140.5 Z"/>
    </g>
    <g>
        <path style="opacity:0.005" fill="#fefffe"
              d="M 6.5,148.5 C 4.66298,148.361 4.32964,147.694 5.5,146.5C 6.29755,146.957 6.63088,147.624 6.5,148.5 Z"/>
    </g>
    <g>
        <path style="opacity:0.004" fill="#fefffe"
              d="M 262.5,148.5 C 262.167,148.5 261.833,148.5 261.5,148.5C 260.833,148.5 260.5,148.167 260.5,147.5C 261.925,145.969 262.591,146.302 262.5,148.5 Z"/>
    </g>
    <g>
        <path style="opacity:0.006" fill="#fefffe"
              d="M 262.5,149.5 C 262.5,149.167 262.5,148.833 262.5,148.5C 265.167,148.833 265.167,149.167 262.5,149.5 Z"/>
    </g>
    <g>
        <path style="opacity:0.009" fill="#fefffe"
              d="M 4.5,150.5 C 4.06795,151.71 3.40128,152.71 2.5,153.5C 2.06178,153.565 1.72845,153.399 1.5,153C 2.19055,151.933 2.69055,150.766 3,149.5C 3.38258,150.056 3.88258,150.389 4.5,150.5 Z"/>
    </g>
    <g>
        <path style="opacity:1" fill="#c6905b"
              d="M 183.5,150.5 C 201.487,151.749 219.487,152.916 237.5,154C 244.697,154.67 249.864,158.17 253,164.5C 253.667,180.167 253.667,195.833 253,211.5C 250.249,216.59 246.083,219.757 240.5,221C 195.576,224.87 150.576,226.537 105.5,226C 80.1733,224.54 54.84,223.207 29.5,222C 22.7346,221.045 17.9013,217.545 15,211.5C 14.3333,195.5 14.3333,179.5 15,163.5C 17.7832,157.877 22.2832,154.877 28.5,154.5C 55.2092,153.666 81.8759,152.499 108.5,151C 133.498,150.5 158.498,150.333 183.5,150.5 Z"/>
    </g>
    <g>
        <path style="opacity:1" fill="#b1865d"
              d="M 183.5,150.5 C 158.498,150.333 133.498,150.5 108.5,151C 81.8759,152.499 55.2092,153.666 28.5,154.5C 80.076,149.637 131.743,148.303 183.5,150.5 Z"/>
    </g>
    <g>
        <path style="opacity:0.008" fill="#fefffe"
              d="M -0.5,153.5 C 0.166667,153.833 0.833333,154.167 1.5,154.5C 1.5,155.167 1.5,155.833 1.5,156.5C 0.833333,156.5 0.5,156.833 0.5,157.5C 0.166667,157.5 -0.166667,157.5 -0.5,157.5C -0.5,156.167 -0.5,154.833 -0.5,153.5 Z"/>
    </g>
    <g>
        <path style="opacity:0.004" fill="#fefffe"
              d="M 266.5,156.5 C 266.5,156.167 266.5,155.833 266.5,155.5C 269.167,155.833 269.167,156.167 266.5,156.5 Z"/>
    </g>
    <g>
        <path style="opacity:1" fill="#050201"
              d="M 46.5,161.5 C 48.9267,161.523 51.26,162.023 53.5,163C 57.6816,167.349 62.0149,171.515 66.5,175.5C 71.3508,170.815 76.3508,166.315 81.5,162C 90.0619,161.565 92.8952,165.398 90,173.5C 85.6513,177.682 81.4846,182.015 77.5,186.5C 81.8181,191.319 86.3181,195.985 91,200.5C 92.3415,208.156 89.1748,211.656 81.5,211C 76.3508,206.685 71.3508,202.185 66.5,197.5C 61.6492,202.185 56.6492,206.685 51.5,211C 42.9547,210.749 40.4547,206.582 44,198.5C 48.0156,194.652 51.8489,190.652 55.5,186.5C 51.1479,181.982 46.9812,177.316 43,172.5C 41.6628,167.916 42.8295,164.249 46.5,161.5 Z"/>
    </g>
    <g>
        <path style="opacity:1" fill="#050201"
              d="M 113.5,161.5 C 115.527,161.338 117.527,161.505 119.5,162C 124.015,166.682 128.681,171.182 133.5,175.5C 138.351,170.815 143.351,166.315 148.5,162C 156.227,161.393 159.394,164.893 158,172.5C 153.318,177.015 148.818,181.681 144.5,186.5C 148.818,191.319 153.318,195.985 158,200.5C 159.374,208.125 156.208,211.625 148.5,211C 143.351,206.685 138.351,202.185 133.5,197.5C 128.681,201.818 124.015,206.318 119.5,211C 110.439,211.254 107.606,207.088 111,198.5C 115.016,194.652 118.849,190.652 122.5,186.5C 118.148,181.982 113.981,177.316 110,172.5C 108.663,167.916 109.829,164.249 113.5,161.5 Z"/>
    </g>
    <g>
        <path style="opacity:1" fill="#050201"
              d="M 180.5,161.5 C 182.527,161.338 184.527,161.505 186.5,162C 191.015,166.682 195.681,171.182 200.5,175.5C 205.319,171.182 209.985,166.682 214.5,162C 222.736,160.902 226.236,164.402 225,172.5C 220.318,177.015 215.818,181.681 211.5,186.5C 215.818,191.319 220.318,195.985 225,200.5C 226.326,208.171 223.159,211.671 215.5,211C 210.351,206.685 205.351,202.185 200.5,197.5C 196.015,201.485 191.682,205.651 187.5,210C 178.333,212.167 174.833,208.667 177,199.5C 181.349,195.318 185.515,190.985 189.5,186.5C 185.148,181.982 180.981,177.316 177,172.5C 175.663,167.872 176.83,164.205 180.5,161.5 Z"/>
    </g>
    <g>
        <path style="opacity:0.004" fill="#fefffe"
              d="M 467.5,172.5 C 468.601,171.402 469.934,171.235 471.5,172C 470.207,172.49 468.873,172.657 467.5,172.5 Z"/>
    </g>
    <g>
        <path style="opacity:0.964" fill="#050303"
              d="M 470.5,175.5 C 471.167,175.833 471.833,176.167 472.5,176.5C 473.167,176.5 473.833,176.5 474.5,176.5C 474.842,177.338 475.508,177.672 476.5,177.5C 476.5,178.167 476.833,178.5 477.5,178.5C 477.842,179.338 478.508,179.672 479.5,179.5C 479.5,180.167 479.833,180.5 480.5,180.5C 480.842,181.338 481.508,181.672 482.5,181.5C 482.5,182.167 482.833,182.5 483.5,182.5C 483.5,183.167 483.833,183.5 484.5,183.5C 484.5,184.167 484.833,184.5 485.5,184.5C 485.5,185.167 485.833,185.5 486.5,185.5C 486.5,186.167 486.833,186.5 487.5,186.5C 487.975,188.784 488.975,190.784 490.5,192.5C 490.833,193.833 491.167,195.167 491.5,196.5C 491.5,196.833 491.5,197.167 491.5,197.5C 491.5,197.833 491.5,198.167 491.5,198.5C 491.914,202.051 491.914,205.718 491.5,209.5C 490.833,209.5 490.5,209.833 490.5,210.5C 490.5,211.167 490.5,211.833 490.5,212.5C 489.833,212.5 489.5,212.833 489.5,213.5C 489.5,213.833 489.5,214.167 489.5,214.5C 488.833,214.5 488.5,214.833 488.5,215.5C 487.833,216.5 487.167,217.5 486.5,218.5C 485.662,218.842 485.328,219.508 485.5,220.5C 484.833,220.5 484.5,220.833 484.5,221.5C 483.5,221.833 482.833,222.5 482.5,223.5C 480.632,224.263 478.965,225.263 477.5,226.5C 476.508,226.328 475.842,226.662 475.5,227.5C 474.209,227.263 473.209,227.596 472.5,228.5C 470.265,228.205 468.265,228.539 466.5,229.5C 465.5,229.5 464.5,229.5 463.5,229.5C 463.167,229.5 462.833,229.5 462.5,229.5C 461.833,229.5 461.167,229.5 460.5,229.5C 459.833,229.833 459.167,230.167 458.5,230.5C 455.088,231.075 452.088,232.408 449.5,234.5C 448.508,234.328 447.842,234.662 447.5,235.5C 446.833,235.5 446.5,235.833 446.5,236.5C 445.833,236.5 445.5,236.833 445.5,237.5C 445.167,237.5 444.833,237.5 444.5,237.5C 443.5,237.833 442.833,238.5 442.5,239.5C 441.29,239.932 440.29,240.599 439.5,241.5C 438.833,241.5 438.5,241.833 438.5,242.5C 437.833,242.5 437.5,242.833 437.5,243.5C 436.833,243.5 436.5,243.833 436.5,244.5C 435.833,244.5 435.5,244.833 435.5,245.5C 434.833,245.5 434.5,245.833 434.5,246.5C 432.833,247.5 431.5,248.833 430.5,250.5C 429.5,250.833 428.833,251.5 428.5,252.5C 427.662,252.842 427.328,253.508 427.5,254.5C 426.833,254.5 426.5,254.833 426.5,255.5C 425.833,255.5 425.5,255.833 425.5,256.5C 424.662,256.842 424.328,257.508 424.5,258.5C 423.833,258.5 423.5,258.833 423.5,259.5C 422.167,259.833 422.167,260.167 423.5,260.5C 424.167,260.833 424.833,261.167 425.5,261.5C 426.708,262.234 428.041,262.567 429.5,262.5C 430.883,263.443 432.216,264.443 433.5,265.5C 433.833,265.5 434.167,265.5 434.5,265.5C 434.842,266.338 435.508,266.672 436.5,266.5C 436.5,267.167 436.833,267.5 437.5,267.5C 438.391,268.11 439.391,268.443 440.5,268.5C 440.5,269.167 440.833,269.5 441.5,269.5C 443.871,271.997 444.871,274.997 444.5,278.5C 442.704,279.793 441.037,281.293 439.5,283C 437.5,283.667 435.5,283.667 433.5,283C 391.068,261.365 347.235,243.198 302,228.5C 298.106,228.447 294.773,229.781 292,232.5C 285.157,246.02 278.99,259.853 273.5,274C 274.122,279.576 276.789,283.909 281.5,287C 310.978,302.573 340.645,317.907 370.5,333C 399.926,345.587 429.593,357.587 459.5,369C 466.228,371.662 472.395,370.828 478,366.5C 485.003,352.832 491.169,338.832 496.5,324.5C 496.213,321.135 495.046,318.135 493,315.5C 488.602,312.106 483.935,309.106 479,306.5C 476.366,303.495 475.866,300.162 477.5,296.5C 477.5,296.167 477.5,295.833 477.5,295.5C 477.833,295.5 478.167,295.5 478.5,295.5C 480.142,293.919 482.142,293.253 484.5,293.5C 484.351,292.448 484.517,291.448 485,290.5C 485.232,291.737 485.732,292.737 486.5,293.5C 487.833,293.833 489.167,294.167 490.5,294.5C 491.778,294.782 492.778,295.449 493.5,296.5C 494.514,297.674 495.847,298.34 497.5,298.5C 498.526,299.853 499.859,300.853 501.5,301.5C 503.316,303.137 505.316,304.637 507.5,306C 505.099,306.805 505.266,307.638 508,308.5C 508.333,309.833 508.667,311.167 509,312.5C 509.333,312.167 509.667,311.833 510,311.5C 510.232,312.737 510.732,313.737 511.5,314.5C 511.5,315.167 511.5,315.833 511.5,316.5C 510.167,316.833 510.167,317.167 511.5,317.5C 511.5,322.167 511.5,326.833 511.5,331.5C 510.655,332.671 509.989,334.005 509.5,335.5C 509.5,335.833 509.5,336.167 509.5,336.5C 508.069,337.78 507.402,339.447 507.5,341.5C 506.596,342.209 506.263,343.209 506.5,344.5C 505.662,344.842 505.328,345.508 505.5,346.5C 504.662,346.842 504.328,347.508 504.5,348.5C 503.599,349.29 502.932,350.29 502.5,351.5C 502.5,351.833 502.5,352.167 502.5,352.5C 501.662,352.842 501.328,353.508 501.5,354.5C 500.833,354.5 500.5,354.833 500.5,355.5C 500.5,355.833 500.5,356.167 500.5,356.5C 499.833,356.5 499.5,356.833 499.5,357.5C 499.5,357.833 499.5,358.167 499.5,358.5C 498.662,358.842 498.328,359.508 498.5,360.5C 497.662,360.842 497.328,361.508 497.5,362.5C 496.662,362.842 496.328,363.508 496.5,364.5C 495.833,364.5 495.5,364.833 495.5,365.5C 495.5,366.167 495.5,366.833 495.5,367.5C 494.833,367.5 494.5,367.833 494.5,368.5C 494.167,369.167 493.833,369.833 493.5,370.5C 493.5,371.167 493.5,371.833 493.5,372.5C 491.952,372.821 491.285,373.821 491.5,375.5C 490.167,376.167 489.167,377.167 488.5,378.5C 487.508,378.328 486.842,378.662 486.5,379.5C 486.5,379.833 486.5,380.167 486.5,380.5C 485.391,380.557 484.391,380.89 483.5,381.5C 482.833,381.5 482.5,381.833 482.5,382.5C 481.609,383.11 480.609,383.443 479.5,383.5C 478.609,384.11 477.609,384.443 476.5,384.5C 475.508,384.328 474.842,384.662 474.5,385.5C 473.508,385.328 472.842,385.662 472.5,386.5C 471.833,386.5 471.5,386.833 471.5,387.5C 470.833,387.5 470.5,387.833 470.5,388.5C 470.5,388.833 470.5,389.167 470.5,389.5C 469.197,391.142 467.864,392.809 466.5,394.5C 465.248,396.001 464.248,397.668 463.5,399.5C 462.094,399.973 461.427,400.973 461.5,402.5C 460.5,402.833 459.833,403.5 459.5,404.5C 458.833,404.5 458.5,404.833 458.5,405.5C 457.833,405.5 457.5,405.833 457.5,406.5C 456.833,407.5 456.167,408.5 455.5,409.5C 454.833,409.5 454.5,409.833 454.5,410.5C 453.833,410.5 453.5,410.833 453.5,411.5C 453.218,412.778 452.551,413.778 451.5,414.5C 450.833,414.5 450.5,414.833 450.5,415.5C 449.833,415.5 449.5,415.833 449.5,416.5C 448.833,417.167 448.167,417.833 447.5,418.5C 446.5,418.833 445.833,419.5 445.5,420.5C 444.833,420.5 444.5,420.833 444.5,421.5C 443.167,421.833 443.167,422.167 444.5,422.5C 444.607,424.379 444.107,424.712 443,423.5C 442.283,424.044 441.783,424.711 441.5,425.5C 440.833,425.5 440.5,425.833 440.5,426.5C 439.833,426.5 439.5,426.833 439.5,427.5C 438.833,427.5 438.5,427.833 438.5,428.5C 438.5,428.833 438.5,429.167 438.5,429.5C 437.833,429.5 437.5,429.833 437.5,430.5C 436.833,430.5 436.5,430.833 436.5,431.5C 433.833,431.833 433.833,432.167 436.5,432.5C 435.391,433.29 434.058,433.79 432.5,434C 430.166,436.891 427.832,439.058 425.5,440.5C 424.833,440.5 424.5,440.833 424.5,441.5C 424.167,441.5 423.833,441.5 423.5,441.5C 421.5,442.833 419.833,444.5 418.5,446.5C 416.205,447.136 414.539,448.469 413.5,450.5C 413.167,449.167 412.833,449.167 412.5,450.5C 411.833,450.5 411.5,450.833 411.5,451.5C 409.973,451.427 408.973,452.094 408.5,453.5C 407.833,453.833 407.167,454.167 406.5,454.5C 405.833,454.5 405.5,454.833 405.5,455.5C 404.508,455.328 403.842,455.662 403.5,456.5C 402.833,456.833 402.167,457.167 401.5,457.5C 400.833,457.5 400.5,457.833 400.5,458.5C 400.167,458.5 399.833,458.5 399.5,458.5C 398.833,458.5 398.5,458.833 398.5,459.5C 397.833,459.5 397.5,459.833 397.5,460.5C 396.508,460.328 395.842,460.662 395.5,461.5C 394.391,461.557 393.391,461.89 392.5,462.5C 391.833,462.5 391.5,462.833 391.5,463.5C 390.833,463.5 390.5,463.833 390.5,464.5C 390.167,464.5 389.833,464.5 389.5,464.5C 388.833,464.5 388.5,464.833 388.5,465.5C 387.508,465.328 386.842,465.662 386.5,466.5C 386.167,466.5 385.833,466.5 385.5,466.5C 384.833,466.833 384.167,467.167 383.5,467.5C 381.716,467.893 380.05,468.559 378.5,469.5C 377.833,469.5 377.5,469.833 377.5,470.5C 376.833,470.5 376.167,470.5 375.5,470.5C 374.833,470.5 374.5,470.833 374.5,471.5C 374.167,471.5 373.833,471.5 373.5,471.5C 372.833,471.5 372.5,471.833 372.5,472.5C 371.209,472.263 370.209,472.596 369.5,473.5C 369.167,473.5 368.833,473.5 368.5,473.5C 367.508,473.328 366.842,473.662 366.5,474.5C 366.167,474.5 365.833,474.5 365.5,474.5C 360.936,475.928 356.269,476.928 351.5,477.5C 350.833,477.5 350.5,477.833 350.5,478.5C 341.404,479.441 332.404,479.774 323.5,479.5C 322.784,478.689 321.95,478.022 321,477.5C 318.871,477.912 316.871,477.912 315,477.5C 310.319,475.445 305.819,473.112 301.5,470.5C 300.833,470.167 300.167,469.833 299.5,469.5C 298.833,469.167 298.167,468.833 297.5,468.5C 297.5,467.833 297.167,467.5 296.5,467.5C 295.833,467.167 295.167,466.833 294.5,466.5C 294.167,466.5 293.833,466.5 293.5,466.5C 291.208,463.695 288.541,461.362 285.5,459.5C 285.167,458.5 284.5,457.833 283.5,457.5C 280.748,453.626 277.748,449.959 274.5,446.5C 274.5,446.167 274.5,445.833 274.5,445.5C 274.5,444.833 274.167,444.5 273.5,444.5C 273.5,443.833 273.167,443.5 272.5,443.5C 272.34,441.847 271.674,440.514 270.5,439.5C 270.672,438.508 270.338,437.842 269.5,437.5C 269.34,435.847 268.674,434.514 267.5,433.5C 267.672,432.508 267.338,431.842 266.5,431.5C 266.443,430.391 266.11,429.391 265.5,428.5C 265.672,427.508 265.338,426.842 264.5,426.5C 264.443,425.391 264.11,424.391 263.5,423.5C 262.833,421.833 262.167,420.167 261.5,418.5C 261.672,417.508 261.338,416.842 260.5,416.5C 260.863,414.089 259.863,412.589 257.5,412C 260.167,411.333 260.167,410.667 257.5,410C 258.022,409.439 258.355,408.772 258.5,408C 257.801,404.291 256.801,400.791 255.5,397.5C 255.795,395.265 255.461,393.265 254.5,391.5C 252.864,379.23 252.197,366.897 252.5,354.5C 252.264,351.391 252.597,348.391 253.5,345.5C 253.5,344.833 253.5,344.167 253.5,343.5C 253.5,342.833 253.5,342.167 253.5,341.5C 253.5,339.5 253.5,337.5 253.5,335.5C 253.833,334.833 254.167,334.167 254.5,333.5C 254.5,333.167 254.5,332.833 254.5,332.5C 254.5,331.5 254.5,330.5 254.5,329.5C 254.5,328.833 254.5,328.167 254.5,327.5C 255.388,324.946 255.721,322.279 255.5,319.5C 256.407,317.343 257.073,315.01 257.5,312.5C 258.496,307.175 259.496,301.842 260.5,296.5C 261.455,294.717 262.122,292.717 262.5,290.5C 262.246,288.583 261.246,287.249 259.5,286.5C 260.509,285.061 260.176,283.728 258.5,282.5C 258.709,281.914 259.043,281.414 259.5,281C 258.833,277.667 258.167,274.333 257.5,271C 258.305,269.887 258.972,268.721 259.5,267.5C 259.833,266.167 260.167,264.833 260.5,263.5C 261.11,262.609 261.443,261.609 261.5,260.5C 262.338,260.158 262.672,259.492 262.5,258.5C 263.167,258.5 263.5,258.167 263.5,257.5C 263.5,256.833 263.5,256.167 263.5,255.5C 264.167,255.5 264.5,255.167 264.5,254.5C 264.833,253.833 265.167,253.167 265.5,252.5C 265.733,250.938 266.4,249.605 267.5,248.5C 267.833,247.833 268.167,247.167 268.5,246.5C 269.566,244.299 270.233,241.965 270.5,239.5C 271.167,239.5 271.5,239.167 271.5,238.5C 272.167,238.5 272.5,238.167 272.5,237.5C 272.5,237.167 272.5,236.833 272.5,236.5C 273.167,236.5 273.5,236.167 273.5,235.5C 273.5,235.167 273.5,234.833 273.5,234.5C 274.931,233.22 275.598,231.553 275.5,229.5C 276.338,229.158 276.672,228.492 276.5,227.5C 277.401,226.71 278.068,225.71 278.5,224.5C 279.5,224.167 280.167,223.5 280.5,222.5C 280.5,222.167 280.5,221.833 280.5,221.5C 281.167,221.5 281.5,221.167 281.5,220.5C 282.167,220.5 282.5,220.167 282.5,219.5C 282.833,219.5 283.167,219.5 283.5,219.5C 284.167,219.5 284.5,219.167 284.5,218.5C 296.423,211.878 309.089,211.878 322.5,218.5C 323.086,218.291 323.586,217.957 324,217.5C 324.278,218.416 324.778,219.082 325.5,219.5C 326.167,219.5 326.833,219.5 327.5,219.5C 327.5,220.167 327.833,220.5 328.5,220.5C 329.708,221.234 331.041,221.567 332.5,221.5C 333.167,222.833 333.833,222.833 334.5,221.5C 335.755,223.641 337.422,224.307 339.5,223.5C 340.265,224.612 341.265,225.279 342.5,225.5C 342.842,226.338 343.508,226.672 344.5,226.5C 344.833,226.5 345.167,226.5 345.5,226.5C 345.842,227.338 346.508,227.672 347.5,227.5C 347.5,228.167 347.833,228.5 348.5,228.5C 349.167,228.5 349.833,228.5 350.5,228.5C 350.842,229.338 351.508,229.672 352.5,229.5C 352.5,230.167 352.833,230.5 353.5,230.5C 353.833,230.5 354.167,230.5 354.5,230.5C 356.297,231.73 358.297,232.396 360.5,232.5C 363.428,233.817 366.428,235.15 369.5,236.5C 369.833,236.5 370.167,236.5 370.5,236.5C 370.842,237.338 371.508,237.672 372.5,237.5C 372.842,238.338 373.508,238.672 374.5,238.5C 375.391,239.11 376.391,239.443 377.5,239.5C 377.5,240.167 377.833,240.5 378.5,240.5C 378.833,240.5 379.167,240.5 379.5,240.5C 380.345,239.329 381.011,237.995 381.5,236.5C 382.167,236.5 382.5,236.167 382.5,235.5C 382.5,235.167 382.5,234.833 382.5,234.5C 383.537,233.07 384.204,231.403 384.5,229.5C 385.338,229.158 385.672,228.492 385.5,227.5C 387.071,225.365 388.404,223.032 389.5,220.5C 390.828,218.202 392.162,215.868 393.5,213.5C 394.488,212.205 395.488,210.872 396.5,209.5C 396.833,208.833 397.167,208.167 397.5,207.5C 398.759,206.021 399.759,204.354 400.5,202.5C 401.167,202.5 401.5,202.167 401.5,201.5C 402.167,201.5 402.5,201.167 402.5,200.5C 405.2,198.766 407.2,196.432 408.5,193.5C 409.5,193.167 410.167,192.5 410.5,191.5C 411.71,191.068 412.71,190.401 413.5,189.5C 414.5,189.167 415.167,188.5 415.5,187.5C 416.557,186.794 416.224,186.461 414.5,186.5C 417.063,185.931 419.23,184.597 421,182.5C 422.159,183.566 422.992,183.233 423.5,181.5C 424.492,181.672 425.158,181.338 425.5,180.5C 439.439,172.919 454.439,171.252 470.5,175.5 Z"/>
    </g>
    <g>
        <path style="opacity:0.005" fill="#fefffe"
              d="M 470.5,175.5 C 471.623,174.243 472.289,174.576 472.5,176.5C 471.833,176.167 471.167,175.833 470.5,175.5 Z"/>
    </g>
    <g>
        <path style="opacity:0.009" fill="#fefffe"
              d="M 490.5,192.5 C 488.975,190.784 487.975,188.784 487.5,186.5C 486.833,186.5 486.5,186.167 486.5,185.5C 485.833,185.5 485.5,185.167 485.5,184.5C 485.539,182.776 485.206,182.443 484.5,183.5C 483.833,183.5 483.5,183.167 483.5,182.5C 482.833,182.5 482.5,182.167 482.5,181.5C 481.508,181.672 480.842,181.338 480.5,180.5C 479.833,180.5 479.5,180.167 479.5,179.5C 478.508,179.672 477.842,179.338 477.5,178.5C 476.833,178.5 476.5,178.167 476.5,177.5C 476.158,176.662 475.492,176.328 474.5,176.5C 474.369,175.624 474.702,174.957 475.5,174.5C 479.421,177.043 483.254,179.71 487,182.5C 487.333,182.167 487.667,181.833 488,181.5C 488.564,185.127 490.064,188.293 492.5,191C 491.956,191.717 491.289,192.217 490.5,192.5 Z"/>
    </g>
    <g>
        <path style="opacity:0.005" fill="#fefffe"
              d="M 425.5,180.5 C 425.158,181.338 424.492,181.672 423.5,181.5C 423.062,181.565 422.728,181.399 422.5,181C 423.849,180.228 424.682,179.061 425,177.5C 425.483,178.448 425.649,179.448 425.5,180.5 Z"/>
    </g>
    <g>
        <path style="opacity:0.004" fill="#fefffe"
              d="M 411.5,186.5 C 412.773,187.077 412.773,187.743 411.5,188.5C 410.537,188.03 410.537,187.363 411.5,186.5 Z"/>
    </g>
    <g>
        <path style="opacity:0.007" fill="#fefffe"
              d="M 414.5,186.5 C 414.5,187.167 414.833,187.5 415.5,187.5C 415.167,188.5 414.5,189.167 413.5,189.5C 413.263,188.209 413.596,187.209 414.5,186.5 Z"/>
    </g>
    <g>
        <path style="opacity:0.005" fill="#fefffe"
              d="M 410.5,191.5 C 410.167,192.5 409.5,193.167 408.5,193.5C 404.584,192.575 404.584,191.575 408.5,190.5C 409.183,190.863 409.85,191.196 410.5,191.5 Z"/>
    </g>
    <g>
        <path style="opacity:0.005" fill="#fefffe"
              d="M 403.5,194.5 C 404.376,194.369 405.043,194.702 405.5,195.5C 403.192,196.873 402.525,196.54 403.5,194.5 Z"/>
    </g>
    <g>
        <path style="opacity:0.009" fill="#fefffe"
              d="M 486.5,218.5 C 487.167,217.5 487.833,216.5 488.5,215.5C 489.167,215.5 489.5,215.167 489.5,214.5C 489.5,214.167 489.5,213.833 489.5,213.5C 490.167,213.5 490.5,213.167 490.5,212.5C 490.5,211.833 490.5,211.167 490.5,210.5C 491.167,210.5 491.5,210.167 491.5,209.5C 491.914,205.718 491.914,202.051 491.5,198.5C 494.167,198.167 494.167,197.833 491.5,197.5C 491.5,197.167 491.5,196.833 491.5,196.5C 493.412,194.128 494.578,194.795 495,198.5C 496.336,206.999 493.836,213.999 487.5,219.5C 486.893,219.376 486.56,219.043 486.5,218.5 Z"/>
    </g>
    <g>
        <path style="opacity:1" fill="#c68f5a"
              d="M 474.5,207.5 C 473.977,209.708 472.644,211.208 470.5,212C 457.256,212.975 445.256,217.308 434.5,225C 424.42,233.078 415.753,242.411 408.5,253C 406.037,252.78 403.704,251.946 401.5,250.5C 402.209,249.596 403.209,249.263 404.5,249.5C 408.799,241.665 412.965,233.665 417,225.5C 422.833,219.667 428.667,213.833 434.5,208C 439.404,206.763 442.738,203.763 444.5,199C 451.577,198.314 458.577,197.148 465.5,195.5C 468.179,195.936 470.845,196.436 473.5,197C 474.456,200.394 474.789,203.894 474.5,207.5 Z"/>
    </g>
    <g>
        <path style="opacity:0.004" fill="#fefffe"
              d="M 402.5,200.5 C 402.5,201.167 402.167,201.5 401.5,201.5C 400.833,201.5 400.5,201.833 400.5,202.5C 398.354,202.304 398.188,201.304 400,199.5C 401.016,200.634 401.683,200.301 402,198.5C 402.464,199.094 402.631,199.761 402.5,200.5 Z"/>
    </g>
    <g>
        <path style="opacity:1" fill="#bb814f"
              d="M 474.5,207.5 C 474.789,203.894 474.456,200.394 473.5,197C 470.845,196.436 468.179,195.936 465.5,195.5C 458.577,197.148 451.577,198.314 444.5,199C 442.738,203.763 439.404,206.763 434.5,208C 428.667,213.833 422.833,219.667 417,225.5C 412.965,233.665 408.799,241.665 404.5,249.5C 403.209,249.263 402.209,249.596 401.5,250.5C 398.697,249.933 396.364,248.6 394.5,246.5C 401.752,226.117 413.752,209.283 430.5,196C 441.241,188.733 452.907,186.733 465.5,190C 471.886,191.879 475.552,196.046 476.5,202.5C 476.564,204.557 475.898,206.223 474.5,207.5 Z"/>
    </g>
    <g>
        <path style="opacity:0.01" fill="#fefffe"
              d="M 397.5,207.5 C 397.167,208.167 396.833,208.833 396.5,209.5C 395.243,208.377 395.576,207.711 397.5,207.5 Z"/>
    </g>
    <g>
        <path style="opacity:0.007" fill="#fefffe"
              d="M 393.5,213.5 C 392.427,212.749 392.26,211.749 393,210.5C 393.483,211.448 393.649,212.448 393.5,213.5 Z"/>
    </g>
    <g>
        <path style="opacity:0.009" fill="#fefffe"
              d="M 284.5,218.5 C 284.5,219.167 284.167,219.5 283.5,219.5C 282.321,217.591 282.654,217.258 284.5,218.5 Z"/>
    </g>
    <g>
        <path style="opacity:0.009" fill="#fefffe"
              d="M 334.5,221.5 C 333.833,221.5 333.167,221.5 332.5,221.5C 331.041,221.567 329.708,221.234 328.5,220.5C 327.833,220.5 327.5,220.167 327.5,219.5C 326.833,219.5 326.167,219.5 325.5,219.5C 325.783,218.711 326.283,218.044 327,217.5C 329.633,218.752 332.133,220.086 334.5,221.5 Z"/>
    </g>
    <g>
        <path style="opacity:0.009" fill="#fefffe"
              d="M 266.5,218.5 C 267.376,218.369 268.043,218.702 268.5,219.5C 267.469,220.7 266.635,222.034 266,223.5C 265.31,224.738 264.81,224.738 264.5,223.5C 264.5,223.167 264.5,222.833 264.5,222.5C 265.167,222.5 265.5,222.167 265.5,221.5C 265.5,221.167 265.5,220.833 265.5,220.5C 266.167,220.5 266.5,220.167 266.5,219.5C 266.5,219.167 266.5,218.833 266.5,218.5 Z"/>
    </g>
    <g>
        <path style="opacity:0.006" fill="#fefffe"
              d="M 282.5,219.5 C 282.5,220.167 282.167,220.5 281.5,220.5C 280.833,220.5 280.5,220.833 280.5,221.5C 280.5,221.833 280.5,222.167 280.5,222.5C 278.915,221.998 278.415,220.998 279,219.5C 280.145,218.316 281.312,218.316 282.5,219.5 Z"/>
    </g>
    <g>
        <path style="opacity:0.004" fill="#fefffe" d="M 389.5,220.5 C 388.833,219.167 388.833,219.167 389.5,220.5 Z"/>
    </g>
    <g>
        <path style="opacity:0.01" fill="#fefffe"
              d="M 485.5,220.5 C 486.239,220.369 486.906,220.536 487.5,221C 486.563,221.692 485.897,221.525 485.5,220.5 Z"/>
    </g>
    <g>
        <path style="opacity:0.009" fill="#fefffe"
              d="M 484.5,221.5 C 485.263,222.268 486.263,222.768 487.5,223C 485.845,224.444 485.178,226.278 485.5,228.5C 484.07,228.579 482.736,228.246 481.5,227.5C 480.83,229.291 480.163,230.958 479.5,232.5C 479.5,232.167 479.5,231.833 479.5,231.5C 479.5,229.833 479.5,228.167 479.5,226.5C 480.473,226.013 481.473,225.513 482.5,225C 483.738,224.31 483.738,223.81 482.5,223.5C 482.833,222.5 483.5,221.833 484.5,221.5 Z"/>
    </g>
    <g>
        <path style="opacity:0.006" fill="#fefffe"
              d="M 278.5,224.5 C 277.475,224.103 277.308,223.437 278,222.5C 278.464,223.094 278.631,223.761 278.5,224.5 Z"/>
    </g>
    <g>
        <path style="opacity:0.01" fill="#fefffe"
              d="M 342.5,225.5 C 342.735,224.903 343.235,224.57 344,224.5C 349.364,225.799 354.53,227.632 359.5,230C 360.252,230.671 360.586,231.504 360.5,232.5C 358.297,232.396 356.297,231.73 354.5,230.5C 354.167,229.167 353.833,229.167 353.5,230.5C 352.833,230.5 352.5,230.167 352.5,229.5C 352.158,228.662 351.492,228.328 350.5,228.5C 349.833,227.167 349.167,227.167 348.5,228.5C 347.833,228.5 347.5,228.167 347.5,227.5C 347.158,226.662 346.492,226.328 345.5,226.5C 345.167,226.5 344.833,226.5 344.5,226.5C 344.158,225.662 343.492,225.328 342.5,225.5 Z"/>
    </g>
    <g>
        <path style="opacity:0.009" fill="#fefffe"
              d="M 276.5,227.5 C 276.672,228.492 276.338,229.158 275.5,229.5C 274.499,228.211 274.666,226.878 276,225.5C 276.464,226.094 276.631,226.761 276.5,227.5 Z"/>
    </g>
    <g>
        <path style="opacity:0.004" fill="#fdfffe"
              d="M 261.5,226.5 C 262.552,226.351 263.552,226.517 264.5,227C 263.62,228.356 263.286,229.856 263.5,231.5C 266.167,231.5 268.833,231.5 271.5,231.5C 271.285,233.179 271.952,234.179 273.5,234.5C 273.5,234.833 273.5,235.167 273.5,235.5C 272.833,235.5 272.5,235.833 272.5,236.5C 272.5,236.833 272.5,237.167 272.5,237.5C 271.833,237.5 271.5,237.833 271.5,238.5C 270.833,238.5 270.5,238.833 270.5,239.5C 268.804,241.268 267.47,243.435 266.5,246C 267.094,246.464 267.761,246.631 268.5,246.5C 268.167,247.167 267.833,247.833 267.5,248.5C 265.73,247.615 264.73,248.448 264.5,251C 264.57,251.765 264.903,252.265 265.5,252.5C 265.167,253.167 264.833,253.833 264.5,254.5C 263.833,254.5 263.5,254.833 263.5,255.5C 262.167,256.167 262.167,256.833 263.5,257.5C 263.5,258.167 263.167,258.5 262.5,258.5C 260.302,258.409 259.969,259.075 261.5,260.5C 259.618,261.221 259.285,262.221 260.5,263.5C 260.167,264.833 259.833,266.167 259.5,267.5C 258.25,267.577 257.417,268.244 257,269.5C 256.211,273.091 256.378,276.591 257.5,280C 257.167,280.167 256.833,280.333 256.5,280.5C 255.516,277.572 255.183,274.572 255.5,271.5C 253.5,271.5 251.5,271.5 249.5,271.5C 249.657,270.127 249.49,268.793 249,267.5C 248.667,268.167 248.333,268.833 248,269.5C 247.601,269.272 247.435,268.938 247.5,268.5C 247.5,267.833 247.5,267.167 247.5,266.5C 248.167,266.5 248.5,266.167 248.5,265.5C 248.5,265.167 248.5,264.833 248.5,264.5C 249.404,263.791 249.737,262.791 249.5,261.5C 250.434,260.432 250.768,259.099 250.5,257.5C 251.268,256.737 251.768,255.737 252,254.5C 252.333,255.833 252.667,257.167 253,258.5C 253.483,257.552 253.649,256.552 253.5,255.5C 255.45,250.265 256.117,244.598 255.5,238.5C 255.5,237.833 255.167,237.5 254.5,237.5C 253.979,234.364 254.979,232.03 257.5,230.5C 259.439,232.989 259.772,232.656 258.5,229.5C 259.167,228.167 260.167,227.167 261.5,226.5 Z"/>
    </g>
    <g>
        <path style="opacity:0.007" fill="#fefffe"
              d="M 385.5,227.5 C 385.672,228.492 385.338,229.158 384.5,229.5C 383.105,228.352 383.272,227.352 385,226.5C 385.399,226.728 385.565,227.062 385.5,227.5 Z"/>
    </g>
    <g>
        <path style="opacity:0.008" fill="#ff80ff"
              d="M 477.5,226.5 C 478.167,226.5 478.833,226.5 479.5,226.5C 479.5,228.167 479.5,229.833 479.5,231.5C 474.073,231.218 468.74,231.551 463.5,232.5C 463.5,231.5 463.5,230.5 463.5,229.5C 464.5,229.5 465.5,229.5 466.5,229.5C 466.56,230.043 466.893,230.376 467.5,230.5C 469.336,229.972 471.003,229.306 472.5,228.5C 473.209,227.596 474.209,227.263 475.5,227.5C 475.842,226.662 476.508,226.328 477.5,226.5 Z"/>
    </g>
    <g>
        <path style="opacity:0.004" fill="#fefffe"
              d="M 275.5,229.5 C 275.598,231.553 274.931,233.22 273.5,234.5C 273.12,232.302 273.787,230.635 275.5,229.5 Z"/>
    </g>
    <g>
        <path style="opacity:0.006" fill="#fefffe"
              d="M 460.5,229.5 C 461.167,230.833 461.833,230.833 462.5,229.5C 462.833,229.5 463.167,229.5 463.5,229.5C 463.5,230.5 463.5,231.5 463.5,232.5C 463.5,233.5 463.5,234.5 463.5,235.5C 459.167,235.5 454.833,235.5 450.5,235.5C 452.995,233.286 455.995,232.119 459.5,232C 458.944,231.617 458.611,231.117 458.5,230.5C 459.167,230.167 459.833,229.833 460.5,229.5 Z"/>
    </g>
    <g>
        <path style="opacity:0.004" fill="#fe00ff" d="M 8.5,230.5 C 7.83333,231.167 7.83333,231.167 8.5,230.5 Z"/>
    </g>
    <g>
        <path style="opacity:1" fill="#c58f5b"
              d="M 444.5,278.5 C 452.544,284.191 461.211,288.857 470.5,292.5C 471.167,293.833 471.833,293.833 472.5,292.5C 474.819,292.992 476.819,293.992 478.5,295.5C 478.167,295.5 477.833,295.5 477.5,295.5C 476.167,295.833 476.167,296.167 477.5,296.5C 475.866,300.162 476.366,303.495 479,306.5C 483.935,309.106 488.602,312.106 493,315.5C 495.046,318.135 496.213,321.135 496.5,324.5C 491.169,338.832 485.003,352.832 478,366.5C 472.395,370.828 466.228,371.662 459.5,369C 429.593,357.587 399.926,345.587 370.5,333C 340.645,317.907 310.978,302.573 281.5,287C 276.789,283.909 274.122,279.576 273.5,274C 278.99,259.853 285.157,246.02 292,232.5C 294.773,229.781 298.106,228.447 302,228.5C 347.235,243.198 391.068,261.365 433.5,283C 435.5,283.667 437.5,283.667 439.5,283C 441.037,281.293 442.704,279.793 444.5,278.5 Z"/>
    </g>
    <g>
        <path style="opacity:0.004" fill="#fe00ff"
              d="M 479.5,231.5 C 479.5,231.833 479.5,232.167 479.5,232.5C 479.5,233.5 479.5,234.5 479.5,235.5C 474.167,235.5 468.833,235.5 463.5,235.5C 463.5,234.5 463.5,233.5 463.5,232.5C 468.74,231.551 474.073,231.218 479.5,231.5 Z"/>
    </g>
    <g>
        <path style="opacity:0.009" fill="#fefffe"
              d="M 379.5,240.5 C 379.167,240.5 378.833,240.5 378.5,240.5C 377.833,240.5 377.5,240.167 377.5,239.5C 376.391,239.443 375.391,239.11 374.5,238.5C 374.158,237.662 373.492,237.328 372.5,237.5C 372.158,236.662 371.492,236.328 370.5,236.5C 370.167,236.5 369.833,236.5 369.5,236.5C 369.811,235.522 370.478,234.855 371.5,234.5C 373.858,236.287 376.525,237.287 379.5,237.5C 379.5,238.5 379.5,239.5 379.5,240.5 Z"/>
    </g>
    <g>
        <path style="opacity:0.008" fill="#fefffe"
              d="M 382.5,234.5 C 382.5,234.833 382.5,235.167 382.5,235.5C 381.833,235.5 381.5,235.833 381.5,236.5C 377.53,235.021 377.863,234.354 382.5,234.5 Z"/>
    </g>
    <g>
        <path style="opacity:0.014" fill="#fefffe"
              d="M 447.5,235.5 C 447.842,234.662 448.508,234.328 449.5,234.5C 449.5,235.167 449.833,235.5 450.5,235.5C 450.158,236.338 449.492,236.672 448.5,236.5C 448.5,235.833 448.167,235.5 447.5,235.5 Z"/>
    </g>
    <g>
        <path style="opacity:0.004" fill="#fe00ff"
              d="M 12.5,235.5 C 12.5,236.167 12.5,236.833 12.5,237.5C 10.0673,236.452 10.0673,235.786 12.5,235.5 Z"/>
    </g>
    <g>
        <path style="opacity:0.012" fill="#fefffe"
              d="M 446.5,237.5 C 446.5,237.167 446.5,236.833 446.5,236.5C 447.167,236.5 447.833,236.5 448.5,236.5C 448.158,237.338 447.492,237.672 446.5,237.5 Z"/>
    </g>
    <g>
        <path style="opacity:0.005" fill="#fefffe"
              d="M 444.5,237.5 C 444.5,239.5 444.5,241.5 444.5,243.5C 442.712,243.215 441.045,243.548 439.5,244.5C 441.745,246.623 444.412,247.623 447.5,247.5C 447.83,254.532 447.497,261.532 446.5,268.5C 444.476,266.642 442.309,264.975 440,263.5C 439.603,258.564 439.436,253.897 439.5,249.5C 436.632,251.532 433.632,253.365 430.5,255C 432.291,257.106 432.958,259.606 432.5,262.5C 431.5,262.5 430.5,262.5 429.5,262.5C 427.389,260.509 426.056,258.509 425.5,256.5C 425.5,255.833 425.833,255.5 426.5,255.5C 427.167,255.5 427.5,255.167 427.5,254.5C 429.424,254.289 429.757,253.623 428.5,252.5C 428.833,251.5 429.5,250.833 430.5,250.5C 430.369,251.239 430.536,251.906 431,252.5C 432.745,251.044 434.578,249.711 436.5,248.5C 437.521,247.998 437.688,247.332 437,246.5C 436.23,247.598 435.397,247.598 434.5,246.5C 434.5,245.833 434.833,245.5 435.5,245.5C 436.167,245.5 436.5,245.167 436.5,244.5C 437.167,244.5 437.5,244.167 437.5,243.5C 438.167,243.5 438.5,243.167 438.5,242.5C 438.5,241.833 438.833,241.5 439.5,241.5C 440.313,242.653 441.313,242.653 442.5,241.5C 443.773,240.743 443.773,240.077 442.5,239.5C 442.833,238.5 443.5,237.833 444.5,237.5 Z"/>
    </g>
    <g>
        <path style="opacity:0.012" fill="#fefffe"
              d="M 445.5,237.5 C 445.833,237.5 446.167,237.5 446.5,237.5C 446.167,241.5 445.833,241.5 445.5,237.5 Z"/>
    </g>
    <g>
        <path style="opacity:1" fill="#7f4620"
              d="M 93.5,240.5 C 92.1667,240.5 90.8333,240.5 89.5,240.5C 96.0131,278.175 110.68,312.175 133.5,342.5C 130.575,346.933 130.909,351.1 134.5,355C 138.821,355.499 143.154,355.666 147.5,355.5C 150.413,360.798 154.747,364.464 160.5,366.5C 135.068,377.874 111.735,374.374 90.5,356C 76.7098,343.742 65.0431,329.742 55.5,314C 52.8934,311.895 49.8934,311.062 46.5,311.5C 46.0679,310.29 45.4013,309.29 44.5,308.5C 44.3404,306.847 43.6737,305.514 42.5,304.5C 42.1667,303.167 41.8333,303.167 41.5,304.5C 40.2089,303.458 40.2089,302.292 41.5,301C 40.7807,298.383 39.4474,296.216 37.5,294.5C 37.5,293.833 37.5,293.167 37.5,292.5C 37.5,291.833 37.1667,291.5 36.5,291.5C 36.1667,290.833 35.8333,290.167 35.5,289.5C 36.8333,289.167 36.8333,288.833 35.5,288.5C 35.5,288.167 35.5,287.833 35.5,287.5C 35.6716,286.508 35.3382,285.842 34.5,285.5C 34.5,285.167 34.5,284.833 34.5,284.5C 34.6716,283.508 34.3382,282.842 33.5,282.5C 33.5,282.167 33.5,281.833 33.5,281.5C 33.6716,280.508 33.3382,279.842 32.5,279.5C 33.4577,278.038 34.6244,276.705 36,275.5C 36.1667,274.167 36.3333,272.833 36.5,271.5C 34.1561,260.144 31.8227,248.811 29.5,237.5C 51.0131,237.986 72.3465,238.986 93.5,240.5 Z"/>
    </g>
    <g>
        <path style="opacity:1" fill="#955a33"
              d="M 234.5,252.5 C 229.21,277.874 219.71,301.541 206,323.5C 194.196,341.473 179.029,355.806 160.5,366.5C 154.747,364.464 150.413,360.798 147.5,355.5C 162.92,352.21 171.92,342.71 174.5,327C 174.124,320.623 170.791,317.956 164.5,319C 160.815,322.698 158.648,327.198 158,332.5C 156.386,335.237 154.219,337.403 151.5,339C 145.643,340.886 139.643,342.053 133.5,342.5C 110.68,312.175 96.0131,278.175 89.5,240.5C 90.8333,240.5 92.1667,240.5 93.5,240.5C 94.1667,240.5 94.8333,240.5 95.5,240.5C 95.6107,241.117 95.944,241.617 96.5,242C 143.285,243.388 189.952,242.222 236.5,238.5C 236.043,243.201 235.376,247.868 234.5,252.5 Z"/>
    </g>
    <g>
        <path style="opacity:0.004" fill="#00fffe"
              d="M 254.5,238.5 C 254.833,238.5 255.167,238.5 255.5,238.5C 256.117,244.598 255.45,250.265 253.5,255.5C 254.292,249.87 254.625,244.203 254.5,238.5 Z"/>
    </g>
    <g>
        <path style="opacity:0.012" fill="#ffeaff"
              d="M 12.5,237.5 C 12.8333,237.5 13.1667,237.5 13.5,237.5C 13.6287,239.216 13.962,240.883 14.5,242.5C 13.7784,242.918 13.2784,243.584 13,244.5C 12.7489,242.567 12.2489,240.734 11.5,239C 12.056,238.617 12.3893,238.117 12.5,237.5 Z"/>
    </g>
    <g>
        <path style="opacity:1" fill="#87583a"
              d="M 234.5,252.5 C 235.376,247.868 236.043,243.201 236.5,238.5C 189.952,242.222 143.285,243.388 96.5,242C 95.944,241.617 95.6107,241.117 95.5,240.5C 143.209,241.361 190.876,240.027 238.5,236.5C 238.039,242.164 236.706,247.497 234.5,252.5 Z"/>
    </g>
    <g>
        <path style="opacity:1" fill="#050201"
              d="M 312.5,241.5 C 315.93,241.107 319.096,241.773 322,243.5C 323.998,248.822 325.998,254.155 328,259.5C 328.388,260.428 329.055,261.095 330,261.5C 335.691,259.325 341.525,257.658 347.5,256.5C 354.108,257.273 356.275,260.94 354,267.5C 348.619,270.938 342.785,273.438 336.5,275C 335.484,275.519 334.818,276.353 334.5,277.5C 336.33,282.983 337.997,288.483 339.5,294C 338.285,302.829 334.118,304.663 327,299.5C 324.607,294.322 322.607,288.988 321,283.5C 320.612,282.572 319.945,281.905 319,281.5C 312.864,283.601 306.698,285.601 300.5,287.5C 293.062,284.809 291.728,280.309 296.5,274C 301.678,271.607 307.012,269.607 312.5,268C 313.428,267.612 314.095,266.945 314.5,266C 312.6,260.135 310.6,254.301 308.5,248.5C 309.071,245.687 310.404,243.354 312.5,241.5 Z"/>
    </g>
    <g>
        <path style="opacity:0.004" fill="#67fffe"
              d="M 252.5,246.5 C 253.885,247.947 253.552,248.947 251.5,249.5C 252.11,248.609 252.443,247.609 252.5,246.5 Z"/>
    </g>
    <g>
        <path style="opacity:0.012" fill="#fefffe"
              d="M 424.5,258.5 C 425.11,259.391 425.443,260.391 425.5,261.5C 424.833,261.167 424.167,260.833 423.5,260.5C 423.5,260.167 423.5,259.833 423.5,259.5C 423.5,258.833 423.833,258.5 424.5,258.5 Z"/>
    </g>
    <g>
        <path style="opacity:0.007" fill="#fefffe"
              d="M 441.5,269.5 C 440.833,269.5 440.5,269.167 440.5,268.5C 439.779,266.618 438.779,266.285 437.5,267.5C 436.833,267.5 436.5,267.167 436.5,266.5C 436.158,265.662 435.492,265.328 434.5,265.5C 434.167,265.5 433.833,265.5 433.5,265.5C 433.783,264.711 434.283,264.044 435,263.5C 436.648,264.717 438.481,265.55 440.5,266C 442.311,267.041 442.645,268.207 441.5,269.5 Z"/>
    </g>
    <g>
        <path style="opacity:1" fill="#050201"
              d="M 373.5,269.5 C 377.426,269.047 380.592,270.38 383,273.5C 385.059,279.474 387.559,285.14 390.5,290.5C 396.075,288.211 401.741,286.211 407.5,284.5C 415.791,286.579 417.458,291.079 412.5,298C 406.425,300.411 400.425,302.911 394.5,305.5C 396.984,311.116 398.984,316.949 400.5,323C 399.705,329.574 396.039,331.908 389.5,330C 388.667,329.167 387.833,328.333 387,327.5C 385.025,321.904 382.858,316.404 380.5,311C 374.222,312.362 367.889,313.862 361.5,315.5C 355.628,314.786 353.462,311.452 355,305.5C 355.308,304.692 355.808,304.025 356.5,303.5C 362.642,300.45 368.975,297.784 375.5,295.5C 372.138,288.476 370.305,281.143 370,273.5C 371.376,272.295 372.542,270.962 373.5,269.5 Z"/>
    </g>
    <g>
        <path style="opacity:0.006" fill="#fefffe"
              d="M 245.5,274.5 C 246.097,274.735 246.43,275.235 246.5,276C 245.71,279.356 244.71,282.523 243.5,285.5C 243.5,284.167 243.5,282.833 243.5,281.5C 243.5,281.167 243.5,280.833 243.5,280.5C 244.338,280.158 244.672,279.492 244.5,278.5C 244.433,277.041 244.766,275.708 245.5,274.5 Z"/>
    </g>
    <g>
        <path style="opacity:0.02" fill="#ff8275"
              d="M 33.5,281.5 C 33.5,281.833 33.5,282.167 33.5,282.5C 33.3284,283.492 33.6618,284.158 34.5,284.5C 34.5,284.833 34.5,285.167 34.5,285.5C 34.3284,286.492 34.6618,287.158 35.5,287.5C 35.5,287.833 35.5,288.167 35.5,288.5C 35.5,288.833 35.5,289.167 35.5,289.5C 35.1667,289.5 34.8333,289.5 34.5,289.5C 33.8295,286.662 32.4962,284.162 30.5,282C 31.3523,280.272 32.3523,280.105 33.5,281.5 Z"/>
    </g>
    <g>
        <path style="opacity:0.004" fill="#fffeff"
              d="M 243.5,285.5 C 241.074,291.553 239.908,297.886 240,304.5C 238.581,306.336 237.414,308.336 236.5,310.5C 237.325,311.386 238.325,311.719 239.5,311.5C 239.5,314.167 239.5,316.833 239.5,319.5C 244.833,319.5 250.167,319.5 255.5,319.5C 255.721,322.279 255.388,324.946 254.5,327.5C 253.5,327.5 252.5,327.5 251.5,327.5C 251.5,328.5 251.5,329.5 251.5,330.5C 250.167,331.167 250.167,331.833 251.5,332.5C 251.068,335.877 251.735,338.877 253.5,341.5C 253.5,342.167 253.5,342.833 253.5,343.5C 252.167,344.167 252.167,344.833 253.5,345.5C 252.597,348.391 252.264,351.391 252.5,354.5C 251.683,352.031 251.183,349.365 251,346.5C 248.756,360.596 249.256,374.596 252.5,388.5C 252.64,390.03 253.307,391.03 254.5,391.5C 255.461,393.265 255.795,395.265 255.5,397.5C 250.604,399.446 245.271,400.113 239.5,399.5C 239.5,378.167 239.5,356.833 239.5,335.5C 234.167,335.5 228.833,335.5 223.5,335.5C 223.5,333.833 223.5,332.167 223.5,330.5C 222.766,329.292 222.433,327.959 222.5,326.5C 223.492,326.672 224.158,326.338 224.5,325.5C 225.338,325.158 225.672,324.492 225.5,323.5C 226.833,322.833 226.833,322.167 225.5,321.5C 225.328,320.508 225.662,319.842 226.5,319.5C 226.435,319.938 226.601,320.272 227,320.5C 228.039,319.756 228.539,318.756 228.5,317.5C 229.338,317.158 229.672,316.492 229.5,315.5C 230.338,315.158 230.672,314.492 230.5,313.5C 231.674,312.486 232.34,311.153 232.5,309.5C 233.931,308.22 234.598,306.553 234.5,304.5C 235.338,304.158 235.672,303.492 235.5,302.5C 236.833,302.167 236.833,301.833 235.5,301.5C 235.328,300.508 235.662,299.842 236.5,299.5C 237.644,300.183 237.644,299.849 236.5,298.5C 237.167,296.833 237.833,295.167 238.5,293.5C 239.167,293.5 239.5,293.167 239.5,292.5C 239.604,290.297 240.27,288.297 241.5,286.5C 242.167,286.167 242.833,285.833 243.5,285.5 Z"/>
    </g>
    <g>
        <path style="opacity:0.005" fill="#fefffe"
              d="M 259.5,286.5 C 259.253,289.939 259.586,293.272 260.5,296.5C 258.405,300.846 256.905,305.513 256,310.5C 255.219,309.271 254.719,307.938 254.5,306.5C 256.366,299.629 258.033,292.962 259.5,286.5 Z"/>
    </g>
    <g>
        <path style="opacity:0.004" fill="#9afffe"
              d="M 34.5,289.5 C 34.8333,289.5 35.1667,289.5 35.5,289.5C 35.8333,290.167 36.1667,290.833 36.5,291.5C 35.8333,291.5 35.5,291.833 35.5,292.5C 34.596,291.791 34.2627,290.791 34.5,289.5 Z"/>
    </g>
    <g>
        <path style="opacity:0.005" fill="#fefffe"
              d="M 490.5,294.5 C 489.167,294.167 487.833,293.833 486.5,293.5C 486.351,292.448 486.517,291.448 487,290.5C 488.627,291.532 489.793,292.866 490.5,294.5 Z"/>
    </g>
    <g>
        <path style="opacity:0.008" fill="#fffe64"
              d="M 472.5,292.5 C 471.833,292.5 471.167,292.5 470.5,292.5C 471.167,289.833 471.833,289.833 472.5,292.5 Z"/>
    </g>
    <g>
        <path style="opacity:0.004" fill="#d2fffe"
              d="M 35.5,292.5 C 36.1667,292.5 36.8333,292.5 37.5,292.5C 37.5,293.167 37.5,293.833 37.5,294.5C 37.5654,294.938 37.3988,295.272 37,295.5C 35.9614,294.756 35.4614,293.756 35.5,292.5 Z"/>
    </g>
    <g>
        <path style="opacity:0.004" fill="#ffa7ff"
              d="M 497.5,298.5 C 495.847,298.34 494.514,297.674 493.5,296.5C 493.369,295.761 493.536,295.094 494,294.5C 495.102,295.949 496.269,297.282 497.5,298.5 Z"/>
    </g>
    <g>
        <path style="opacity:1" fill="#050201"
              d="M 434.5,298.5 C 437.747,298.415 440.581,299.415 443,301.5C 445.899,307.233 448.066,313.233 449.5,319.5C 455.691,317.249 462.024,315.249 468.5,313.5C 474.732,314.617 476.898,318.283 475,324.5C 474.167,325.333 473.333,326.167 472.5,327C 466.904,328.975 461.404,331.142 456,333.5C 457.297,339.634 458.797,345.8 460.5,352C 459.048,359.57 454.881,361.404 448,357.5C 445.833,351.833 443.667,346.167 441.5,340.5C 439.926,339.369 438.259,339.202 436.5,340C 431.79,341.941 426.956,343.441 422,344.5C 416.134,343.635 413.801,340.301 415,334.5C 416.167,333.333 417.333,332.167 418.5,331C 424.096,329.025 429.596,326.858 435,324.5C 433.603,318.3 431.77,312.133 429.5,306C 429.831,302.52 431.498,300.02 434.5,298.5 Z"/>
    </g>
    <g>
        <path style="opacity:0.018" fill="#fefffe"
              d="M 501.5,301.5 C 501.897,300.475 502.563,300.308 503.5,301C 502.906,301.464 502.239,301.631 501.5,301.5 Z"/>
    </g>
    <g>
        <path style="opacity:1" fill="#7f4620"
              d="M 327.5,328.5 C 325.447,333.554 323.947,338.887 323,344.5C 318.853,368.775 318.519,393.108 322,417.5C 322.57,423.778 324.07,429.778 326.5,435.5C 322.919,439.676 322.585,444.176 325.5,449C 328.718,449.9 331.718,451.067 334.5,452.5C 333.448,452.351 332.448,452.517 331.5,453C 333.167,456 334.833,459 336.5,462C 342.313,460.942 348.313,460.442 354.5,460.5C 321.606,468.974 297.439,457.974 282,427.5C 269.653,398.392 265.32,368.058 269,336.5C 270.347,326.445 272.014,316.445 274,306.5C 274.739,304.779 275.573,303.113 276.5,301.5C 293.72,310.274 310.72,319.274 327.5,328.5 Z"/>
    </g>
    <g>
        <path style="opacity:0.008" fill="#fffe8e"
              d="M 41.5,304.5 C 41.8333,304.5 42.1667,304.5 42.5,304.5C 42.1667,307.167 41.8333,307.167 41.5,304.5 Z"/>
    </g>
    <g>
        <path style="opacity:0.004" fill="#feff00"
              d="M 44.5,308.5 C 44.631,309.239 44.4643,309.906 44,310.5C 43.3083,309.563 43.475,308.897 44.5,308.5 Z"/>
    </g>
    <g>
        <path style="opacity:0.018" fill="#fefffe"
              d="M 511.5,309.5 C 511.5,309.833 511.5,310.167 511.5,310.5C 508.833,310.167 508.833,309.833 511.5,309.5 Z"/>
    </g>
    <g>
        <path style="opacity:0.011" fill="#fefffe"
              d="M 257.5,312.5 C 257.073,315.01 256.407,317.343 255.5,319.5C 255.336,316.813 255.503,314.146 256,311.5C 256.383,312.056 256.883,312.389 257.5,312.5 Z"/>
    </g>
    <g>
        <path style="opacity:0.012" fill="#fffe9f"
              d="M 42.5,315.5 C 42.5,316.167 42.5,316.833 42.5,317.5C 40.5354,317.052 40.2021,316.052 41.5,314.5C 42.1067,314.624 42.44,314.957 42.5,315.5 Z"/>
    </g>
    <g>
        <path style="opacity:0.009" fill="#fffef5"
              d="M 42.5,318.5 C 42.5,319.833 42.5,321.167 42.5,322.5C 43.1667,322.5 43.5,322.833 43.5,323.5C 43.5,323.833 43.5,324.167 43.5,324.5C 44.1667,324.5 44.5,324.833 44.5,325.5C 45.1667,325.5 45.5,325.833 45.5,326.5C 46.1098,327.391 46.4431,328.391 46.5,329.5C 45.8333,329.5 45.5,329.833 45.5,330.5C 43.0353,327.799 41.0353,324.299 39.5,320C 40.2438,318.961 41.2438,318.461 42.5,318.5 Z"/>
    </g>
    <g>
        <path style="opacity:1" fill="#040100"
              d="M 147.5,355.5 C 143.154,355.666 138.821,355.499 134.5,355C 130.909,351.1 130.575,346.933 133.5,342.5C 139.643,342.053 145.643,340.886 151.5,339C 154.219,337.403 156.386,335.237 158,332.5C 158.648,327.198 160.815,322.698 164.5,319C 170.791,317.956 174.124,320.623 174.5,327C 171.92,342.71 162.92,352.21 147.5,355.5 Z"/>
    </g>
    <g>
        <path style="opacity:0.013" fill="#fefffe"
              d="M 254.5,329.5 C 254.5,330.5 254.5,331.5 254.5,332.5C 253.5,332.5 252.5,332.5 251.5,332.5C 251.5,331.833 251.5,331.167 251.5,330.5C 252.391,329.89 253.391,329.557 254.5,329.5 Z"/>
    </g>
    <g>
        <path style="opacity:0.006" fill="#fefffe"
              d="M 45.5,330.5 C 45.8333,330.5 46.1667,330.5 46.5,330.5C 46.8333,331.833 47.1667,331.833 47.5,330.5C 48.4013,331.29 49.0679,332.29 49.5,333.5C 47.0274,333.912 45.6941,332.912 45.5,330.5 Z"/>
    </g>
    <g>
        <path style="opacity:0.004" fill="#fe00ff"
              d="M 223.5,330.5 C 223.5,332.167 223.5,333.833 223.5,335.5C 222.5,335.5 221.5,335.5 220.5,335.5C 220.273,333.067 221.273,331.401 223.5,330.5 Z"/>
    </g>
    <g>
        <path style="opacity:0.004" fill="#fefffe"
              d="M 511.5,331.5 C 511.5,343.5 511.5,355.5 511.5,367.5C 507.445,367.824 503.445,367.491 499.5,366.5C 501.594,362.816 503.26,358.983 504.5,355C 503.619,354.292 502.953,353.458 502.5,352.5C 502.5,352.167 502.5,351.833 502.5,351.5C 504.048,351.179 504.715,350.179 504.5,348.5C 505.338,348.158 505.672,347.492 505.5,346.5C 506.338,346.158 506.672,345.492 506.5,344.5C 507.404,343.791 507.737,342.791 507.5,341.5C 508.931,340.22 509.598,338.553 509.5,336.5C 510.833,336.167 510.833,335.833 509.5,335.5C 509.989,334.005 510.655,332.671 511.5,331.5 Z"/>
    </g>
    <g>
        <path style="opacity:0.007" fill="#fefffe"
              d="M 254.5,333.5 C 254.167,334.167 253.833,334.833 253.5,335.5C 252.243,334.377 252.576,333.711 254.5,333.5 Z"/>
    </g>
    <g>
        <path style="opacity:0.006" fill="#fefffe"
              d="M 50.5,334.5 C 51.7515,336.001 52.7515,337.668 53.5,339.5C 52.2617,339.81 52.2617,340.31 53.5,341C 52.552,341.483 51.552,341.649 50.5,341.5C 50.33,340.178 50.6634,339.011 51.5,338C 50.5,337 49.5,336 48.5,335C 49.0944,334.536 49.7611,334.369 50.5,334.5 Z"/>
    </g>
    <g>
        <path style="opacity:1" fill="#955a33"
              d="M 327.5,328.5 C 340.267,334.383 352.934,340.55 365.5,347C 395.355,359.424 425.355,371.591 455.5,383.5C 437.509,409.993 414.842,431.493 387.5,448C 377.167,454.054 366.167,458.22 354.5,460.5C 348.313,460.442 342.313,460.942 336.5,462C 334.833,459 333.167,456 331.5,453C 332.448,452.517 333.448,452.351 334.5,452.5C 351.004,455.664 363.504,449.998 372,435.5C 373.341,427.844 370.175,424.344 362.5,425C 359.269,427.727 356.603,430.894 354.5,434.5C 349.772,438.211 344.438,439.378 338.5,438C 334.687,436.228 330.687,435.395 326.5,435.5C 324.07,429.778 322.57,423.778 322,417.5C 318.519,393.108 318.853,368.775 323,344.5C 323.947,338.887 325.447,333.554 327.5,328.5 Z"/>
    </g>
    <g>
        <path style="opacity:0.004" fill="#ff9bff"
              d="M 218.5,332.5 C 219.677,334.103 219.511,335.436 218,336.5C 217.536,335.906 217.369,335.239 217.5,334.5C 217.328,333.508 217.662,332.842 218.5,332.5 Z"/>
    </g>
    <g>
        <path style="opacity:0.004" fill="#fefffe" d="M 214.5,340.5 C 215.833,341.167 215.833,341.167 214.5,340.5 Z"/>
    </g>
    <g>
        <path style="opacity:0.007" fill="#fefffe"
              d="M 212.5,341.5 C 213.167,341.5 213.833,341.5 214.5,341.5C 214.804,342.15 215.137,342.817 215.5,343.5C 213.5,346.833 210.833,349.5 207.5,351.5C 206.438,350.575 206.438,349.575 207.5,348.5C 210.167,348.167 210.167,347.833 207.5,347.5C 207.833,346.5 208.5,345.833 209.5,345.5C 210.338,345.158 210.672,344.492 210.5,343.5C 211.167,343.5 211.5,343.167 211.5,342.5C 211.5,341.833 211.833,341.5 212.5,341.5 Z"/>
    </g>
    <g>
        <path style="opacity:0.01" fill="#fefffe"
              d="M 55.5,342.5 C 56.1667,342.5 56.5,342.833 56.5,343.5C 57.1667,343.5 57.5,343.833 57.5,344.5C 57.5,345.167 57.5,345.833 57.5,346.5C 55.1939,345.625 54.5272,344.292 55.5,342.5 Z"/>
    </g>
    <g>
        <path style="opacity:0.004" fill="#fefffe"
              d="M 57.5,346.5 C 57.8333,346.5 58.1667,346.5 58.5,346.5C 58.3147,347.17 57.9813,347.17 57.5,346.5 Z"/>
    </g>
    <g>
        <path style="opacity:0.013" fill="#fefffe"
              d="M 59.5,346.5 C 60.3382,346.842 60.6716,347.508 60.5,348.5C 60.5,348.833 60.5,349.167 60.5,349.5C 59.7611,349.631 59.0944,349.464 58.5,349C 59.2524,348.329 59.5858,347.496 59.5,346.5 Z"/>
    </g>
    <g>
        <path style="opacity:0.008" fill="#fefffe"
              d="M 60.5,349.5 C 60.8333,349.5 61.1667,349.5 61.5,349.5C 62.1667,349.5 62.5,349.833 62.5,350.5C 61.6726,351.439 61.0059,351.105 60.5,349.5 Z"/>
    </g>
    <g>
        <path style="opacity:0.008" fill="#ff97ff"
              d="M 63.5,351.5 C 64.4013,352.29 65.0679,353.29 65.5,354.5C 64.448,354.649 63.448,354.483 62.5,354C 63.2524,353.329 63.5858,352.496 63.5,351.5 Z"/>
    </g>
    <g>
        <path style="opacity:0.004" fill="#fefffe" d="M 205.5,352.5 C 206.833,353.167 206.833,353.167 205.5,352.5 Z"/>
    </g>
    <g>
        <path style="opacity:0.009" fill="#fefffe"
              d="M 202.5,353.5 C 203.5,353.5 204.5,353.5 205.5,353.5C 203.873,355.63 202.04,357.63 200,359.5C 199.283,358.956 198.783,358.289 198.5,357.5C 199.167,356.167 200.167,355.167 201.5,354.5C 202.206,355.557 202.539,355.224 202.5,353.5 Z"/>
    </g>
    <g>
        <path style="opacity:0.005" fill="#fefffe"
              d="M 500.5,355.5 C 500.5,354.833 500.833,354.5 501.5,354.5C 502.833,355.167 502.833,355.833 501.5,356.5C 501.5,355.833 501.167,355.5 500.5,355.5 Z"/>
    </g>
    <g>
        <path style="opacity:0.007" fill="#fefffe"
              d="M 499.5,357.5 C 499.5,356.833 499.833,356.5 500.5,356.5C 500.833,356.5 501.167,356.5 501.5,356.5C 500.786,361.195 498.786,365.195 495.5,368.5C 495.5,368.167 495.5,367.833 495.5,367.5C 495.5,366.833 495.5,366.167 495.5,365.5C 496.167,365.5 496.5,365.167 496.5,364.5C 497.338,364.158 497.672,363.492 497.5,362.5C 498.338,362.158 498.672,361.492 498.5,360.5C 499.338,360.158 499.672,359.492 499.5,358.5C 500.833,358.167 500.833,357.833 499.5,357.5 Z"/>
    </g>
    <g>
        <path style="opacity:0.02" fill="#fefffe"
              d="M 197.5,358.5 C 197.5,359.167 197.5,359.833 197.5,360.5C 196.833,360.5 196.5,360.833 196.5,361.5C 195.833,361.5 195.167,361.5 194.5,361.5C 195.167,360.167 196.167,359.167 197.5,358.5 Z"/>
    </g>
    <g>
        <path style="opacity:0.008" fill="#ff6fff"
              d="M 71.5,359.5 C 72.5,359.833 73.1667,360.5 73.5,361.5C 70.8333,362.833 70.1667,362.167 71.5,359.5 Z"/>
    </g>
    <g>
        <path style="opacity:0.004" fill="#fefffe" d="M 197.5,360.5 C 198.833,361.167 198.833,361.167 197.5,360.5 Z"/>
    </g>
    <g>
        <path style="opacity:0.005" fill="#fefffe"
              d="M 194.5,361.5 C 194.842,362.338 195.508,362.672 196.5,362.5C 195.207,364.296 193.707,365.963 192,367.5C 191.283,366.956 190.783,366.289 190.5,365.5C 190.833,364.5 191.5,363.833 192.5,363.5C 193.167,363.5 193.5,363.167 193.5,362.5C 193.5,361.833 193.833,361.5 194.5,361.5 Z"/>
    </g>
    <g>
        <path style="opacity:0.004" fill="#fefffe"
              d="M 196.5,361.5 C 196.833,361.5 197.167,361.5 197.5,361.5C 197.315,362.17 196.981,362.17 196.5,361.5 Z"/>
    </g>
    <g>
        <path style="opacity:0.008" fill="#ff58ff"
              d="M 75.5,364.5 C 75.8333,364.5 76.1667,364.5 76.5,364.5C 76.6309,365.376 76.2975,366.043 75.5,366.5C 74.537,366.03 74.537,365.363 75.5,364.5 Z"/>
    </g>
    <g>
        <path style="opacity:0.009" fill="#fefffe"
              d="M 189.5,365.5 C 189.719,366.675 189.386,367.675 188.5,368.5C 187.893,368.376 187.56,368.043 187.5,367.5C 187.833,366.5 188.5,365.833 189.5,365.5 Z"/>
    </g>
    <g>
        <path style="opacity:0.006" fill="#fffcff"
              d="M 494.5,368.5 C 494.833,368.5 495.167,368.5 495.5,368.5C 495.635,373.289 495.635,378.289 495.5,383.5C 492.833,383.5 490.167,383.5 487.5,383.5C 487.5,383.167 487.5,382.833 487.5,382.5C 487.5,381.833 487.167,381.5 486.5,381.5C 486.5,381.167 486.5,380.833 486.5,380.5C 487.833,380.167 487.833,379.833 486.5,379.5C 486.842,378.662 487.508,378.328 488.5,378.5C 488.905,379.55 489.571,379.55 490.5,378.5C 491.386,377.675 491.719,376.675 491.5,375.5C 492.906,375.027 493.573,374.027 493.5,372.5C 494.833,371.833 494.833,371.167 493.5,370.5C 493.833,369.833 494.167,369.167 494.5,368.5 Z"/>
    </g>
    <g>
        <path style="opacity:0.008" fill="#fefffe"
              d="M 185.5,369.5 C 185.461,370.583 185.127,371.583 184.5,372.5C 183.743,373.773 183.077,373.773 182.5,372.5C 183.833,372.167 183.833,371.833 182.5,371.5C 183.29,370.599 184.29,369.932 185.5,369.5 Z"/>
    </g>
    <g>
        <path style="opacity:0.004" fill="#fefffe" d="M 186.5,369.5 C 187.833,370.167 187.833,370.167 186.5,369.5 Z"/>
    </g>
    <g>
        <path style="opacity:0.007" fill="#fefffe"
              d="M 83.5,370.5 C 84.1667,370.5 84.5,370.833 84.5,371.5C 84.6309,372.376 84.2975,373.043 83.5,373.5C 82.4376,372.575 82.4376,371.575 83.5,370.5 Z"/>
    </g>
    <g>
        <path style="opacity:0.012" fill="#fefffe"
              d="M 86.5,372.5 C 87.5,373.167 88.5,373.833 89.5,374.5C 89.5,374.833 89.5,375.167 89.5,375.5C 87.5,375.5 86.5,374.5 86.5,372.5 Z"/>
    </g>
    <g>
        <path style="opacity:0.005" fill="#fefffe"
              d="M 179.5,373.5 C 179.833,373.5 180.167,373.5 180.5,373.5C 181.303,374.423 181.47,375.423 181,376.5C 179.989,375.663 178.822,375.33 177.5,375.5C 177.5,374.833 177.833,374.5 178.5,374.5C 179.167,374.5 179.5,374.167 179.5,373.5 Z"/>
    </g>
    <g>
        <path style="opacity:0.008" fill="#fefffe"
              d="M 89.5,375.5 C 89.8333,375.5 90.1667,375.5 90.5,375.5C 91.7095,375.932 92.7095,376.599 93.5,377.5C 91.4098,378.791 90.0764,378.124 89.5,375.5 Z"/>
    </g>
    <g>
        <path style="opacity:0.004" fill="#fff8ff"
              d="M 166.5,382.5 C 168.027,382.573 169.027,381.906 169.5,380.5C 171.435,379.85 173.435,379.517 175.5,379.5C 175.5,380.833 175.5,382.167 175.5,383.5C 172.287,383.81 169.287,383.477 166.5,382.5 Z"/>
    </g>
    <g>
        <path style="opacity:0.008" fill="#ff97ff"
              d="M 483.5,381.5 C 484.348,382.625 485.348,382.625 486.5,381.5C 487.167,381.5 487.5,381.833 487.5,382.5C 487.5,382.833 487.5,383.167 487.5,383.5C 486.663,383.611 485.663,383.944 484.5,384.5C 483.478,384.145 482.811,383.478 482.5,382.5C 482.5,381.833 482.833,381.5 483.5,381.5 Z"/>
    </g>
    <g>
        <path style="opacity:0.006" fill="#fefffe"
              d="M 107.5,384.5 C 108.959,384.433 110.292,384.766 111.5,385.5C 111.44,386.043 111.107,386.376 110.5,386.5C 108.513,386.132 107.513,385.466 107.5,384.5 Z"/>
    </g>
    <g>
        <path style="opacity:0.004" fill="#ff4eff"
              d="M 113.5,385.5 C 114.391,386.11 115.391,386.443 116.5,386.5C 116.5,386.833 116.5,387.167 116.5,387.5C 114.821,387.715 113.821,387.048 113.5,385.5 Z"/>
    </g>
    <g>
        <path style="opacity:0.008" fill="#ff87ff"
              d="M 479.5,383.5 C 479.423,384.75 478.756,385.583 477.5,386C 478.056,386.383 478.389,386.883 478.5,387.5C 478.5,388.833 478.5,390.167 478.5,391.5C 476.473,391.338 474.473,391.505 472.5,392C 471.944,392.383 471.611,392.883 471.5,393.5C 470.566,392.432 470.232,391.099 470.5,389.5C 471.833,389.167 471.833,388.833 470.5,388.5C 470.5,387.833 470.833,387.5 471.5,387.5C 472.167,387.5 472.5,387.167 472.5,386.5C 472.842,385.662 473.508,385.328 474.5,385.5C 475.492,385.672 476.158,385.338 476.5,384.5C 477.609,384.443 478.609,384.11 479.5,383.5 Z"/>
    </g>
    <g>
        <path style="opacity:0.004" fill="#ff30ff"
              d="M 478.5,387.5 C 479.586,387.62 480.253,388.287 480.5,389.5C 479.673,392.783 479.34,396.116 479.5,399.5C 476.833,399.5 474.167,399.5 471.5,399.5C 471.5,397.5 471.5,395.5 471.5,393.5C 471.611,392.883 471.944,392.383 472.5,392C 474.473,391.505 476.473,391.338 478.5,391.5C 478.5,390.167 478.5,388.833 478.5,387.5 Z"/>
    </g>
    <g>
        <path style="opacity:0.004" fill="#ff52ff"
              d="M 122.5,387.5 C 123.167,387.5 123.833,387.5 124.5,387.5C 123.833,390.167 123.167,390.167 122.5,387.5 Z"/>
    </g>
    <g>
        <path style="opacity:0.008" fill="#fefffe"
              d="M 463.5,399.5 C 464.248,397.668 465.248,396.001 466.5,394.5C 471.664,394.211 471.664,395.044 466.5,397C 465.789,398.255 464.956,399.421 464,400.5C 463.601,400.272 463.435,399.938 463.5,399.5 Z"/>
    </g>
    <g>
        <path style="opacity:0.004" fill="#fefffe" d="M 467.5,397.5 C 468.833,398.167 468.833,398.167 467.5,397.5 Z"/>
    </g>
    <g>
        <path style="opacity:0.004" fill="#fefffe" d="M 467.5,398.5 C 466.833,399.167 466.833,399.167 467.5,398.5 Z"/>
    </g>
    <g>
        <path style="opacity:0.004" fill="#fefffe"
              d="M 445.5,421.5 C 445.5,421.167 445.5,420.833 445.5,420.5C 445.833,419.5 446.5,418.833 447.5,418.5C 448.725,421.151 449.725,420.984 450.5,418C 450.43,417.235 450.097,416.735 449.5,416.5C 449.5,415.833 449.833,415.5 450.5,415.5C 451.167,415.5 451.5,415.167 451.5,414.5C 452.789,415.501 454.122,415.334 455.5,414C 454.934,413.005 454.267,412.172 453.5,411.5C 453.5,410.833 453.833,410.5 454.5,410.5C 455.167,410.5 455.5,410.167 455.5,409.5C 456.167,408.5 456.833,407.5 457.5,406.5C 458.167,406.5 458.5,406.167 458.5,405.5C 461.517,405.444 461.85,405.11 459.5,404.5C 459.833,403.5 460.5,402.833 461.5,402.5C 461.435,402.938 461.601,403.272 462,403.5C 462.423,402.044 463.256,401.544 464.5,402C 463.514,411.75 463.181,421.584 463.5,431.5C 458.167,431.5 452.833,431.5 447.5,431.5C 447.841,427.84 447.175,424.507 445.5,421.5 Z"/>
    </g>
    <g>
        <path style="opacity:0.004" fill="#fefffe"
              d="M 255.5,402.5 C 256.598,403.601 256.765,404.934 256,406.5C 255.51,405.207 255.343,403.873 255.5,402.5 Z"/>
    </g>
    <g>
        <path style="opacity:0.008" fill="#fefffe"
              d="M 260.5,416.5 C 260.328,417.492 260.662,418.158 261.5,418.5C 262.167,420.167 262.833,421.833 263.5,423.5C 262.176,424.85 261.176,424.683 260.5,423C 259.139,420.27 258.639,417.437 259,414.5C 259.278,415.416 259.778,416.082 260.5,416.5 Z"/>
    </g>
    <g>
        <path style="opacity:0.027" fill="#fefffe"
              d="M 444.5,421.5 C 444.833,421.5 445.167,421.5 445.5,421.5C 445.315,422.17 444.981,422.17 444.5,421.5 Z"/>
    </g>
    <g>
        <path style="opacity:0.014" fill="#fefffe"
              d="M 441.5,425.5 C 442.439,426.327 442.105,426.994 440.5,427.5C 440.5,427.167 440.5,426.833 440.5,426.5C 440.5,425.833 440.833,425.5 441.5,425.5 Z"/>
    </g>
    <g>
        <path style="opacity:0.004" fill="#fefffe"
              d="M 264.5,426.5 C 264.5,427.167 264.5,427.833 264.5,428.5C 262.067,427.452 262.067,426.786 264.5,426.5 Z"/>
    </g>
    <g>
        <path style="opacity:1" fill="#060100"
              d="M 334.5,452.5 C 331.718,451.067 328.718,449.9 325.5,449C 322.585,444.176 322.919,439.676 326.5,435.5C 330.687,435.395 334.687,436.228 338.5,438C 344.438,439.378 349.772,438.211 354.5,434.5C 356.603,430.894 359.269,427.727 362.5,425C 370.175,424.344 373.341,427.844 372,435.5C 363.504,449.998 351.004,455.664 334.5,452.5 Z"/>
    </g>
    <g>
        <path style="opacity:0.009" fill="#fefffe"
              d="M 438.5,428.5 C 438.5,427.833 438.833,427.5 439.5,427.5C 439.833,427.5 440.167,427.5 440.5,427.5C 440.672,428.492 440.338,429.158 439.5,429.5C 439.5,428.833 439.167,428.5 438.5,428.5 Z"/>
    </g>
    <g>
        <path style="opacity:0.005" fill="#fefffe"
              d="M 264.5,428.5 C 264.833,428.5 265.167,428.5 265.5,428.5C 266.11,429.391 266.443,430.391 266.5,431.5C 265.833,431.5 265.5,431.833 265.5,432.5C 264.566,431.432 264.232,430.099 264.5,428.5 Z"/>
    </g>
    <g>
        <path style="opacity:0.004" fill="#fefffe"
              d="M 438.5,429.5 C 438.833,429.5 439.167,429.5 439.5,429.5C 439.315,430.17 438.981,430.17 438.5,429.5 Z"/>
    </g>
    <g>
        <path style="opacity:0.004" fill="#fefffe"
              d="M 437.5,430.5 C 437.833,430.5 438.167,430.5 438.5,430.5C 438.315,431.17 437.981,431.17 437.5,430.5 Z"/>
    </g>
    <g>
        <path style="opacity:0.017" fill="#fefffe"
              d="M 266.5,431.5 C 267.338,431.842 267.672,432.508 267.5,433.5C 266.833,433.5 266.5,433.833 266.5,434.5C 265.662,434.158 265.328,433.492 265.5,432.5C 266.167,432.5 266.5,432.167 266.5,431.5 Z"/>
    </g>
    <g>
        <path style="opacity:0.004" fill="#fefffe"
              d="M 436.5,431.5 C 436.833,431.5 437.167,431.5 437.5,431.5C 437.315,432.17 436.981,432.17 436.5,431.5 Z"/>
    </g>
    <g>
        <path style="opacity:0.004" fill="#fefffe"
              d="M 266.5,434.5 C 267.272,435.694 268.272,436.694 269.5,437.5C 268.791,438.404 267.791,438.737 266.5,438.5C 266.5,437.167 266.5,435.833 266.5,434.5 Z"/>
    </g>
    <g>
        <path style="opacity:0.005" fill="#fefffe"
              d="M 270.5,439.5 C 271.674,440.514 272.34,441.847 272.5,443.5C 273.167,443.5 273.5,443.833 273.5,444.5C 274.167,444.5 274.5,444.833 274.5,445.5C 274.5,445.833 274.5,446.167 274.5,446.5C 273.475,446.897 273.308,447.563 274,448.5C 275.842,450.864 277.675,453.197 279.5,455.5C 275.449,454.62 272.783,452.12 271.5,448C 268.854,447.503 266.187,447.336 263.5,447.5C 263.5,444.833 263.5,442.167 263.5,439.5C 265.833,439.5 268.167,439.5 270.5,439.5 Z"/>
    </g>
    <g>
        <path style="opacity:0.005" fill="#fefffe"
              d="M 425.5,440.5 C 425.5,441.167 425.833,441.5 426.5,441.5C 426.611,442.117 426.944,442.617 427.5,443C 425.697,443.637 424.364,444.803 423.5,446.5C 421.701,447.788 420.035,447.788 418.5,446.5C 419.833,444.5 421.5,442.833 423.5,441.5C 423.833,442.833 424.167,442.833 424.5,441.5C 424.5,440.833 424.833,440.5 425.5,440.5 Z"/>
    </g>
    <g>
        <path style="opacity:0.006" fill="#fefffe"
              d="M 426.5,441.5 C 426.897,440.475 427.563,440.308 428.5,441C 427.906,441.464 427.239,441.631 426.5,441.5 Z"/>
    </g>
    <g>
        <path style="opacity:0.008" fill="#fefffe"
              d="M 412.5,450.5 C 412.833,450.5 413.167,450.5 413.5,450.5C 413.315,451.17 412.981,451.17 412.5,450.5 Z"/>
    </g>
    <g>
        <path style="opacity:0.005" fill="#fefffe"
              d="M 411.5,451.5 C 411.833,451.5 412.167,451.5 412.5,451.5C 412.842,452.338 413.508,452.672 414.5,452.5C 414.918,453.222 415.584,453.722 416.5,454C 415.549,457.057 415.216,460.223 415.5,463.5C 410.167,463.5 404.833,463.5 399.5,463.5C 399.5,468.833 399.5,474.167 399.5,479.5C 386.833,479.5 374.167,479.5 361.5,479.5C 361.5,478.5 361.5,477.5 361.5,476.5C 363.38,476.771 364.713,476.104 365.5,474.5C 365.833,474.5 366.167,474.5 366.5,474.5C 367.492,474.672 368.158,474.338 368.5,473.5C 368.833,473.5 369.167,473.5 369.5,473.5C 370.791,473.737 371.791,473.404 372.5,472.5C 373.167,472.5 373.5,472.167 373.5,471.5C 373.833,471.5 374.167,471.5 374.5,471.5C 375.167,471.5 375.5,471.167 375.5,470.5C 376.167,470.5 376.833,470.5 377.5,470.5C 377.783,471.289 378.283,471.956 379,472.5C 381.96,471.714 384.794,470.548 387.5,469C 386.619,468.292 385.953,467.458 385.5,466.5C 385.833,466.5 386.167,466.5 386.5,466.5C 387.492,466.672 388.158,466.338 388.5,465.5C 389.167,465.5 389.5,465.167 389.5,464.5C 389.833,464.5 390.167,464.5 390.5,464.5C 391.206,465.557 391.539,465.224 391.5,463.5C 392.167,463.5 392.5,463.167 392.5,462.5C 393.391,461.89 394.391,461.557 395.5,461.5C 397.199,461.66 398.866,461.494 400.5,461C 399.552,460.517 398.552,460.351 397.5,460.5C 397.5,459.833 397.833,459.5 398.5,459.5C 399.167,459.5 399.5,459.167 399.5,458.5C 399.833,458.5 400.167,458.5 400.5,458.5C 401.167,458.5 401.5,458.167 401.5,457.5C 402.167,457.167 402.833,456.833 403.5,456.5C 403.586,457.496 403.252,458.329 402.5,459C 404.134,459.494 405.801,459.66 407.5,459.5C 407.473,457.801 406.806,456.467 405.5,455.5C 406.167,455.5 406.5,455.167 406.5,454.5C 407.167,454.167 407.833,453.833 408.5,453.5C 408.783,454.289 409.283,454.956 410,455.5C 410.791,454.255 411.291,452.922 411.5,451.5 Z"/>
    </g>
    <g>
        <path style="opacity:0.004" fill="#fefffe"
              d="M 414.5,452.5 C 414.897,451.475 415.563,451.308 416.5,452C 415.906,452.464 415.239,452.631 414.5,452.5 Z"/>
    </g>
    <g>
        <path style="opacity:0.004" fill="#fefffe"
              d="M 279.5,455.5 C 280.167,455.5 280.5,455.833 280.5,456.5C 280.167,456.167 279.833,455.833 279.5,455.5 Z"/>
    </g>
    <g>
        <path style="opacity:0.004" fill="#fefffe"
              d="M 280.5,456.5 C 281.167,456.5 281.5,456.833 281.5,457.5C 281.167,457.167 280.833,456.833 280.5,456.5 Z"/>
    </g>
    <g>
        <path style="opacity:0.004" fill="#fefffe" d="M 281.5,457.5 C 282.833,458.167 282.833,458.167 281.5,457.5 Z"/>
    </g>
    <g>
        <path style="opacity:0.007" fill="#fefffe"
              d="M 283.5,457.5 C 284.5,457.833 285.167,458.5 285.5,459.5C 283.797,460.66 283.131,459.993 283.5,457.5 Z"/>
    </g>
    <g>
        <path style="opacity:0.004" fill="#fe00ff"
              d="M 293.5,466.5 C 293.833,466.5 294.167,466.5 294.5,466.5C 293.762,468.76 292.762,468.927 291.5,467C 292.094,466.536 292.761,466.369 293.5,466.5 Z"/>
    </g>
    <g>
        <path style="opacity:0.011" fill="#fefffe"
              d="M 383.5,467.5 C 382.177,469.682 380.51,470.349 378.5,469.5C 380.05,468.559 381.716,467.893 383.5,467.5 Z"/>
    </g>
    <g>
        <path style="opacity:0.024" fill="#ffbeff"
              d="M 296.5,467.5 C 297.167,467.5 297.5,467.833 297.5,468.5C 297.5,468.833 297.5,469.167 297.5,469.5C 296.833,469.5 296.167,469.5 295.5,469.5C 295.062,469.565 294.728,469.399 294.5,469C 295.416,468.722 296.082,468.222 296.5,467.5 Z"/>
    </g>
    <g>
        <path style="opacity:0.008" fill="#ff59ff"
              d="M 295.5,469.5 C 296.167,469.5 296.833,469.5 297.5,469.5C 298.167,470.833 298.833,470.833 299.5,469.5C 300.167,469.833 300.833,470.167 301.5,470.5C 301.217,471.289 300.717,471.956 300,472.5C 298.122,471.947 296.622,470.947 295.5,469.5 Z"/>
    </g>
    <g>
        <path style="opacity:0.004" fill="#fefffe"
              d="M 351.5,477.5 C 354.397,478.013 357.397,478.346 360.5,478.5C 357.696,479.305 354.862,479.972 352,480.5C 350.97,480.164 350.47,479.497 350.5,478.5C 350.5,477.833 350.833,477.5 351.5,477.5 Z"/>
    </g>
</svg>
